<svg width="500" height="500" viewBox="0 0 500 500" fill="none" xmlns="http://www.w3.org/2000/svg">
<path d="M408.91 205.779C408.91 205.779 377.26 145.879 311.17 122.659C245.08 99.4392 214.54 119.719 180.68 141.659C154 158.929 133.16 183.999 111.33 206.089C91.33 226.369 62.03 242.089 52.78 270.159C41.09 305.659 67.59 343.999 99 364.649C142.88 393.429 185.42 375.819 231.24 369.059H231.5C238.152 368.039 244.87 367.504 251.6 367.459C304.82 367.569 343.01 405.149 381.78 366.459C420.55 327.769 426.74 252.399 408.91 205.779Z" fill="#407BFF"/>
<path opacity="0.75" d="M408.91 205.779C408.91 205.779 377.26 145.879 311.17 122.659C245.08 99.4392 214.54 119.719 180.68 141.659C154 158.929 133.16 183.999 111.33 206.089C91.33 226.369 62.03 242.089 52.78 270.159C41.09 305.659 67.59 343.999 99 364.649C142.88 393.429 185.42 375.819 231.24 369.059H231.5C238.152 368.039 244.87 367.504 251.6 367.459C304.82 367.569 343.01 405.149 381.78 366.459C420.55 327.769 426.74 252.399 408.91 205.779Z" fill="white"/>
<path d="M387.48 194.999C384.29 193.259 382.84 194.709 381.67 193.259C380.5 191.809 384.87 188.029 376.16 184.259C376.16 184.259 375.58 176.129 363.67 175.839C351.76 175.549 355 183.929 351.77 185.999C348.54 188.069 347.7 184.839 344.51 186.869C341.32 188.899 342.76 192.969 340.15 193.549C337.54 194.129 334.05 190.939 330.86 192.969C327.67 194.999 327.66 196.739 326.21 196.739C324.76 196.739 321.86 195.579 320.11 196.739C318.36 197.899 316.34 199.359 316.34 199.359H389.8C389.8 199.359 390.68 196.699 387.48 194.999Z" fill="white" stroke="#263238" stroke-miterlimit="10"/>
<path d="M206.6 220C205.15 219.21 204.49 219.87 203.97 219.21C203.45 218.55 205.42 216.84 201.46 215.13C201.46 215.13 201.2 211.43 195.79 211.3C190.38 211.17 191.84 214.99 190.39 215.92C188.94 216.85 188.55 215.39 187.1 216.31C185.65 217.23 186.3 219.08 185.1 219.31C183.9 219.54 182.33 218.13 180.88 219.05C179.43 219.97 179.43 220.76 178.77 220.76C178.11 220.76 176.77 220.24 176 220.76C175.23 221.28 174.29 221.95 174.29 221.95H207.64C207.725 221.555 207.668 221.142 207.477 220.785C207.287 220.427 206.976 220.15 206.6 220Z" fill="white" stroke="#263238" stroke-miterlimit="10"/>
<path d="M233.62 136C231.62 134.92 230.72 135.82 229.99 134.92C229.26 134.02 231.99 131.65 226.55 129.3C226.55 129.3 226.19 124.22 218.76 124.04C211.33 123.86 213.32 129.12 211.32 130.38C209.32 131.64 208.79 129.66 206.79 130.93C204.79 132.2 205.71 134.73 204.07 135.1C202.43 135.47 200.27 133.47 198.28 134.73C196.29 135.99 196.28 137.09 195.38 137.09C194.48 137.09 192.66 136.36 191.57 137.09C190.48 137.82 189.21 138.72 189.21 138.72H235.07C235.197 138.168 235.12 137.588 234.853 137.089C234.587 136.589 234.149 136.202 233.62 136Z" fill="white" stroke="#263238" stroke-miterlimit="10"/>
<path d="M104.76 235.699H96.6V243.919H104.76V235.699Z" stroke="#263238" stroke-miterlimit="10"/>
<path d="M91.1 240.67H87.79V243.91H91.1V240.67Z" stroke="#263238" stroke-miterlimit="10"/>
<path d="M422.86 287.599H391.94V222.379H394.01V215.619H321.58V222.379H324.09V319.369H305.09V111.279H239.94V268.649H216.13V251.229H222.36V243.859H170.28V138.279H173.65V132.759H110.42V138.279H114.96V244.039H64.99V319.669H38.75" stroke="#263238" stroke-miterlimit="10"/>
<path d="M307.68 109H237.04V111.26H307.68V109Z" stroke="#263238" stroke-miterlimit="10"/>
<path d="M128.57 144.42H120.61V152.94H128.57V144.42Z" stroke="#263238" stroke-miterlimit="10"/>
<path d="M140.24 144.42H132.28V152.94H140.24V144.42Z" stroke="#263238" stroke-miterlimit="10"/>
<path d="M151.91 144.42H143.95V152.94H151.91V144.42Z" stroke="#263238" stroke-miterlimit="10"/>
<path d="M163.59 144.42H155.63V152.94H163.59V144.42Z" stroke="#263238" stroke-miterlimit="10"/>
<path d="M128.57 157.93H120.61V166.45H128.57V157.93Z" stroke="#263238" stroke-miterlimit="10"/>
<path d="M140.24 157.93H132.28V166.45H140.24V157.93Z" stroke="#263238" stroke-miterlimit="10"/>
<path d="M151.91 157.93H143.95V166.45H151.91V157.93Z" stroke="#263238" stroke-miterlimit="10"/>
<path d="M163.59 157.93H155.63V166.45H163.59V157.93Z" stroke="#263238" stroke-miterlimit="10"/>
<path d="M128.57 171.43H120.61V179.95H128.57V171.43Z" stroke="#263238" stroke-miterlimit="10"/>
<path d="M140.24 171.43H132.28V179.95H140.24V171.43Z" stroke="#263238" stroke-miterlimit="10"/>
<path d="M151.91 171.43H143.95V179.95H151.91V171.43Z" stroke="#263238" stroke-miterlimit="10"/>
<path d="M163.59 171.43H155.63V179.95H163.59V171.43Z" stroke="#263238" stroke-miterlimit="10"/>
<path d="M128.57 184.93H120.61V193.45H128.57V184.93Z" stroke="#263238" stroke-miterlimit="10"/>
<path d="M140.24 184.93H132.28V193.45H140.24V184.93Z" stroke="#263238" stroke-miterlimit="10"/>
<path d="M151.91 184.93H143.95V193.45H151.91V184.93Z" stroke="#263238" stroke-miterlimit="10"/>
<path d="M163.59 184.93H155.63V193.45H163.59V184.93Z" stroke="#263238" stroke-miterlimit="10"/>
<path d="M128.57 198.439H120.61V206.959H128.57V198.439Z" stroke="#263238" stroke-miterlimit="10"/>
<path d="M140.24 198.439H132.28V206.959H140.24V198.439Z" stroke="#263238" stroke-miterlimit="10"/>
<path d="M151.91 198.439H143.95V206.959H151.91V198.439Z" stroke="#263238" stroke-miterlimit="10"/>
<path d="M163.59 198.439H155.63V206.959H163.59V198.439Z" stroke="#263238" stroke-miterlimit="10"/>
<path d="M128.57 211.939H120.61V220.459H128.57V211.939Z" stroke="#263238" stroke-miterlimit="10"/>
<path d="M140.24 211.939H132.28V220.459H140.24V211.939Z" stroke="#263238" stroke-miterlimit="10"/>
<path d="M151.91 211.939H143.95V220.459H151.91V211.939Z" stroke="#263238" stroke-miterlimit="10"/>
<path d="M163.59 211.939H155.63V220.459H163.59V211.939Z" stroke="#263238" stroke-miterlimit="10"/>
<path d="M128.57 225.449H120.61V233.969H128.57V225.449Z" stroke="#263238" stroke-miterlimit="10"/>
<path d="M140.24 225.449H132.28V233.969H140.24V225.449Z" stroke="#263238" stroke-miterlimit="10"/>
<path d="M151.91 225.449H143.95V233.969H151.91V225.449Z" stroke="#263238" stroke-miterlimit="10"/>
<path d="M163.59 225.449H155.63V233.969H163.59V225.449Z" stroke="#263238" stroke-miterlimit="10"/>
<path d="M128.57 238.949H120.61V247.469H128.57V238.949Z" stroke="#263238" stroke-miterlimit="10"/>
<path d="M140.24 238.949H132.28V247.469H140.24V238.949Z" stroke="#263238" stroke-miterlimit="10"/>
<path d="M151.91 238.949H143.95V247.469H151.91V238.949Z" stroke="#263238" stroke-miterlimit="10"/>
<path d="M163.59 238.949H155.63V247.469H163.59V238.949Z" stroke="#263238" stroke-miterlimit="10"/>
<path d="M128.57 251.301H120.61V259.821H128.57V251.301Z" stroke="#263238" stroke-miterlimit="10"/>
<path d="M140.24 251.301H132.28V259.821H140.24V251.301Z" stroke="#263238" stroke-miterlimit="10"/>
<path d="M151.91 251.301H143.95V259.821H151.91V251.301Z" stroke="#263238" stroke-miterlimit="10"/>
<path d="M163.59 251.301H155.63V259.821H163.59V251.301Z" stroke="#263238" stroke-miterlimit="10"/>
<path d="M128.57 264.811H120.61V273.331H128.57V264.811Z" stroke="#263238" stroke-miterlimit="10"/>
<path d="M140.24 264.811H132.28V273.331H140.24V264.811Z" stroke="#263238" stroke-miterlimit="10"/>
<path d="M151.91 264.811H143.95V273.331H151.91V264.811Z" stroke="#263238" stroke-miterlimit="10"/>
<path d="M163.59 264.811H155.63V273.331H163.59V264.811Z" stroke="#263238" stroke-miterlimit="10"/>
<path d="M128.57 278.311H120.61V286.831H128.57V278.311Z" stroke="#263238" stroke-miterlimit="10"/>
<path d="M140.24 278.311H132.28V286.831H140.24V278.311Z" stroke="#263238" stroke-miterlimit="10"/>
<path d="M151.91 278.311H143.95V286.831H151.91V278.311Z" stroke="#263238" stroke-miterlimit="10"/>
<path d="M163.59 278.311H155.63V286.831H163.59V278.311Z" stroke="#263238" stroke-miterlimit="10"/>
<path d="M128.57 291.811H120.61V300.331H128.57V291.811Z" stroke="#263238" stroke-miterlimit="10"/>
<path d="M140.24 291.811H132.28V300.331H140.24V291.811Z" stroke="#263238" stroke-miterlimit="10"/>
<path d="M151.91 291.811H143.95V300.331H151.91V291.811Z" stroke="#263238" stroke-miterlimit="10"/>
<path d="M163.59 291.811H155.63V300.331H163.59V291.811Z" stroke="#263238" stroke-miterlimit="10"/>
<path d="M128.57 305.32H120.61V313.84H128.57V305.32Z" stroke="#263238" stroke-miterlimit="10"/>
<path d="M140.24 305.32H132.28V313.84H140.24V305.32Z" stroke="#263238" stroke-miterlimit="10"/>
<path d="M151.91 305.32H143.95V313.84H151.91V305.32Z" stroke="#263238" stroke-miterlimit="10"/>
<path d="M163.59 305.32H155.63V313.84H163.59V305.32Z" stroke="#263238" stroke-miterlimit="10"/>
<path d="M128.57 318.82H120.61V327.34H128.57V318.82Z" stroke="#263238" stroke-miterlimit="10"/>
<path d="M140.24 318.82H132.28V327.34H140.24V318.82Z" stroke="#263238" stroke-miterlimit="10"/>
<path d="M151.91 318.82H143.95V327.34H151.91V318.82Z" stroke="#263238" stroke-miterlimit="10"/>
<path d="M163.59 318.82H155.63V327.34H163.59V318.82Z" stroke="#263238" stroke-miterlimit="10"/>
<path d="M128.57 332.33H120.61V340.85H128.57V332.33Z" stroke="#263238" stroke-miterlimit="10"/>
<path d="M140.24 332.33H132.28V340.85H140.24V332.33Z" stroke="#263238" stroke-miterlimit="10"/>
<path d="M151.91 332.33H143.95V340.85H151.91V332.33Z" stroke="#263238" stroke-miterlimit="10"/>
<path d="M163.59 332.33H155.63V340.85H163.59V332.33Z" stroke="#263238" stroke-miterlimit="10"/>
<path d="M128.57 345.83H120.61V354.35H128.57V345.83Z" stroke="#263238" stroke-miterlimit="10"/>
<path d="M140.24 345.83H132.28V354.35H140.24V345.83Z" stroke="#263238" stroke-miterlimit="10"/>
<path d="M151.91 345.83H143.95V354.35H151.91V345.83Z" stroke="#263238" stroke-miterlimit="10"/>
<path d="M163.59 345.83H155.63V354.35H163.59V345.83Z" stroke="#263238" stroke-miterlimit="10"/>
<path d="M174.16 251.301H166.2V259.821H174.16V251.301Z" stroke="#263238" stroke-miterlimit="10"/>
<path d="M185.83 251.301H177.87V259.821H185.83V251.301Z" stroke="#263238" stroke-miterlimit="10"/>
<path d="M197.5 251.301H189.54V259.821H197.5V251.301Z" stroke="#263238" stroke-miterlimit="10"/>
<path d="M209.17 251.301H201.21V259.821H209.17V251.301Z" stroke="#263238" stroke-miterlimit="10"/>
<path d="M174.16 264.811H166.2V273.331H174.16V264.811Z" stroke="#263238" stroke-miterlimit="10"/>
<path d="M185.83 264.811H177.87V273.331H185.83V264.811Z" stroke="#263238" stroke-miterlimit="10"/>
<path d="M197.5 264.811H189.54V273.331H197.5V264.811Z" stroke="#263238" stroke-miterlimit="10"/>
<path d="M209.17 264.811H201.21V273.331H209.17V264.811Z" stroke="#263238" stroke-miterlimit="10"/>
<path d="M174.16 278.311H166.2V286.831H174.16V278.311Z" stroke="#263238" stroke-miterlimit="10"/>
<path d="M185.83 278.311H177.87V286.831H185.83V278.311Z" stroke="#263238" stroke-miterlimit="10"/>
<path d="M197.5 278.311H189.54V286.831H197.5V278.311Z" stroke="#263238" stroke-miterlimit="10"/>
<path d="M209.17 278.311H201.21V286.831H209.17V278.311Z" stroke="#263238" stroke-miterlimit="10"/>
<path d="M174.16 291.811H166.2V300.331H174.16V291.811Z" stroke="#263238" stroke-miterlimit="10"/>
<path d="M185.83 291.811H177.87V300.331H185.83V291.811Z" stroke="#263238" stroke-miterlimit="10"/>
<path d="M197.5 291.811H189.54V300.331H197.5V291.811Z" stroke="#263238" stroke-miterlimit="10"/>
<path d="M209.17 291.811H201.21V300.331H209.17V291.811Z" stroke="#263238" stroke-miterlimit="10"/>
<path d="M174.16 305.32H166.2V313.84H174.16V305.32Z" stroke="#263238" stroke-miterlimit="10"/>
<path d="M185.83 305.32H177.87V313.84H185.83V305.32Z" stroke="#263238" stroke-miterlimit="10"/>
<path d="M197.5 305.32H189.54V313.84H197.5V305.32Z" stroke="#263238" stroke-miterlimit="10"/>
<path d="M209.17 305.32H201.21V313.84H209.17V305.32Z" stroke="#263238" stroke-miterlimit="10"/>
<path d="M174.16 318.82H166.2V327.34H174.16V318.82Z" stroke="#263238" stroke-miterlimit="10"/>
<path d="M185.83 318.82H177.87V327.34H185.83V318.82Z" stroke="#263238" stroke-miterlimit="10"/>
<path d="M197.5 318.82H189.54V327.34H197.5V318.82Z" stroke="#263238" stroke-miterlimit="10"/>
<path d="M209.17 318.82H201.21V327.34H209.17V318.82Z" stroke="#263238" stroke-miterlimit="10"/>
<path d="M174.16 332.33H166.2V340.85H174.16V332.33Z" stroke="#263238" stroke-miterlimit="10"/>
<path d="M185.83 332.33H177.87V340.85H185.83V332.33Z" stroke="#263238" stroke-miterlimit="10"/>
<path d="M197.5 332.33H189.54V340.85H197.5V332.33Z" stroke="#263238" stroke-miterlimit="10"/>
<path d="M209.17 332.33H201.21V340.85H209.17V332.33Z" stroke="#263238" stroke-miterlimit="10"/>
<path d="M174.16 345.83H166.2V354.35H174.16V345.83Z" stroke="#263238" stroke-miterlimit="10"/>
<path d="M185.83 345.83H177.87V354.35H185.83V345.83Z" stroke="#263238" stroke-miterlimit="10"/>
<path d="M197.5 345.83H189.54V354.35H197.5V345.83Z" stroke="#263238" stroke-miterlimit="10"/>
<path d="M209.17 345.83H201.21V354.35H209.17V345.83Z" stroke="#263238" stroke-miterlimit="10"/>
<path d="M82.35 251.301H74.39V259.821H82.35V251.301Z" stroke="#263238" stroke-miterlimit="10"/>
<path d="M94.02 251.301H86.06V259.821H94.02V251.301Z" stroke="#263238" stroke-miterlimit="10"/>
<path d="M105.69 251.301H97.73V259.821H105.69V251.301Z" stroke="#263238" stroke-miterlimit="10"/>
<path d="M117.36 251.301H109.4V259.821H117.36V251.301Z" stroke="#263238" stroke-miterlimit="10"/>
<path d="M82.35 264.811H74.39V273.331H82.35V264.811Z" stroke="#263238" stroke-miterlimit="10"/>
<path d="M94.02 264.811H86.06V273.331H94.02V264.811Z" stroke="#263238" stroke-miterlimit="10"/>
<path d="M105.69 264.811H97.73V273.331H105.69V264.811Z" stroke="#263238" stroke-miterlimit="10"/>
<path d="M117.36 264.811H109.4V273.331H117.36V264.811Z" stroke="#263238" stroke-miterlimit="10"/>
<path d="M82.35 278.311H74.39V286.831H82.35V278.311Z" stroke="#263238" stroke-miterlimit="10"/>
<path d="M94.02 278.311H86.06V286.831H94.02V278.311Z" stroke="#263238" stroke-miterlimit="10"/>
<path d="M105.69 278.311H97.73V286.831H105.69V278.311Z" stroke="#263238" stroke-miterlimit="10"/>
<path d="M117.36 278.311H109.4V286.831H117.36V278.311Z" stroke="#263238" stroke-miterlimit="10"/>
<path d="M82.35 291.811H74.39V300.331H82.35V291.811Z" stroke="#263238" stroke-miterlimit="10"/>
<path d="M94.02 291.811H86.06V300.331H94.02V291.811Z" stroke="#263238" stroke-miterlimit="10"/>
<path d="M105.69 291.811H97.73V300.331H105.69V291.811Z" stroke="#263238" stroke-miterlimit="10"/>
<path d="M117.36 291.811H109.4V300.331H117.36V291.811Z" stroke="#263238" stroke-miterlimit="10"/>
<path d="M82.35 305.32H74.39V313.84H82.35V305.32Z" stroke="#263238" stroke-miterlimit="10"/>
<path d="M94.02 305.32H86.06V313.84H94.02V305.32Z" stroke="#263238" stroke-miterlimit="10"/>
<path d="M105.69 305.32H97.73V313.84H105.69V305.32Z" stroke="#263238" stroke-miterlimit="10"/>
<path d="M117.36 305.32H109.4V313.84H117.36V305.32Z" stroke="#263238" stroke-miterlimit="10"/>
<path d="M82.35 318.82H74.39V327.34H82.35V318.82Z" stroke="#263238" stroke-miterlimit="10"/>
<path d="M94.02 318.82H86.06V327.34H94.02V318.82Z" stroke="#263238" stroke-miterlimit="10"/>
<path d="M105.69 318.82H97.73V327.34H105.69V318.82Z" stroke="#263238" stroke-miterlimit="10"/>
<path d="M117.36 318.82H109.4V327.34H117.36V318.82Z" stroke="#263238" stroke-miterlimit="10"/>
<path d="M82.35 332.33H74.39V340.85H82.35V332.33Z" stroke="#263238" stroke-miterlimit="10"/>
<path d="M94.02 332.33H86.06V340.85H94.02V332.33Z" stroke="#263238" stroke-miterlimit="10"/>
<path d="M105.69 332.33H97.73V340.85H105.69V332.33Z" stroke="#263238" stroke-miterlimit="10"/>
<path d="M117.36 332.33H109.4V340.85H117.36V332.33Z" stroke="#263238" stroke-miterlimit="10"/>
<path d="M82.35 345.83H74.39V354.35H82.35V345.83Z" stroke="#263238" stroke-miterlimit="10"/>
<path d="M94.02 345.83H86.06V354.35H94.02V345.83Z" stroke="#263238" stroke-miterlimit="10"/>
<path d="M105.69 345.83H97.73V354.35H105.69V345.83Z" stroke="#263238" stroke-miterlimit="10"/>
<path d="M117.36 345.83H109.4V354.35H117.36V345.83Z" stroke="#263238" stroke-miterlimit="10"/>
<path d="M343.04 224.83H335.08V233.35H343.04V224.83Z" stroke="#263238" stroke-miterlimit="10"/>
<path d="M354.71 224.83H346.75V233.35H354.71V224.83Z" stroke="#263238" stroke-miterlimit="10"/>
<path d="M366.38 224.83H358.42V233.35H366.38V224.83Z" stroke="#263238" stroke-miterlimit="10"/>
<path d="M378.05 224.83H370.09V233.35H378.05V224.83Z" stroke="#263238" stroke-miterlimit="10"/>
<path d="M343.04 238.34H335.08V246.86H343.04V238.34Z" stroke="#263238" stroke-miterlimit="10"/>
<path d="M354.71 238.34H346.75V246.86H354.71V238.34Z" stroke="#263238" stroke-miterlimit="10"/>
<path d="M366.38 238.34H358.42V246.86H366.38V238.34Z" stroke="#263238" stroke-miterlimit="10"/>
<path d="M378.05 238.34H370.09V246.86H378.05V238.34Z" stroke="#263238" stroke-miterlimit="10"/>
<path d="M343.04 251.84H335.08V260.36H343.04V251.84Z" stroke="#263238" stroke-miterlimit="10"/>
<path d="M354.71 251.84H346.75V260.36H354.71V251.84Z" stroke="#263238" stroke-miterlimit="10"/>
<path d="M366.38 251.84H358.42V260.36H366.38V251.84Z" stroke="#263238" stroke-miterlimit="10"/>
<path d="M378.05 251.84H370.09V260.36H378.05V251.84Z" stroke="#263238" stroke-miterlimit="10"/>
<path d="M343.04 265.34H335.08V273.86H343.04V265.34Z" stroke="#263238" stroke-miterlimit="10"/>
<path d="M354.71 265.34H346.75V273.86H354.71V265.34Z" stroke="#263238" stroke-miterlimit="10"/>
<path d="M366.38 265.34H358.42V273.86H366.38V265.34Z" stroke="#263238" stroke-miterlimit="10"/>
<path d="M378.05 265.34H370.09V273.86H378.05V265.34Z" stroke="#263238" stroke-miterlimit="10"/>
<path d="M343.04 278.85H335.08V287.37H343.04V278.85Z" stroke="#263238" stroke-miterlimit="10"/>
<path d="M354.71 278.85H346.75V287.37H354.71V278.85Z" stroke="#263238" stroke-miterlimit="10"/>
<path d="M366.38 278.85H358.42V287.37H366.38V278.85Z" stroke="#263238" stroke-miterlimit="10"/>
<path d="M378.05 278.85H370.09V287.37H378.05V278.85Z" stroke="#263238" stroke-miterlimit="10"/>
<path d="M343.04 292.35H335.08V300.87H343.04V292.35Z" stroke="#263238" stroke-miterlimit="10"/>
<path d="M354.71 292.35H346.75V300.87H354.71V292.35Z" stroke="#263238" stroke-miterlimit="10"/>
<path d="M366.38 292.35H358.42V300.87H366.38V292.35Z" stroke="#263238" stroke-miterlimit="10"/>
<path d="M378.05 292.35H370.09V300.87H378.05V292.35Z" stroke="#263238" stroke-miterlimit="10"/>
<path d="M343.04 305.859H335.08V314.379H343.04V305.859Z" stroke="#263238" stroke-miterlimit="10"/>
<path d="M354.71 305.859H346.75V314.379H354.71V305.859Z" stroke="#263238" stroke-miterlimit="10"/>
<path d="M366.38 305.859H358.42V314.379H366.38V305.859Z" stroke="#263238" stroke-miterlimit="10"/>
<path d="M378.05 305.859H370.09V314.379H378.05V305.859Z" stroke="#263238" stroke-miterlimit="10"/>
<path d="M343.04 319.359H335.08V327.879H343.04V319.359Z" stroke="#263238" stroke-miterlimit="10"/>
<path d="M354.71 319.359H346.75V327.879H354.71V319.359Z" stroke="#263238" stroke-miterlimit="10"/>
<path d="M366.38 319.359H358.42V327.879H366.38V319.359Z" stroke="#263238" stroke-miterlimit="10"/>
<path d="M378.05 319.359H370.09V327.879H378.05V319.359Z" stroke="#263238" stroke-miterlimit="10"/>
<path d="M246.08 116.189V362.939" stroke="#263238" stroke-miterlimit="10"/>
<path d="M253.97 116.189V362.939" stroke="#263238" stroke-miterlimit="10"/>
<path d="M261.86 116.189V362.939" stroke="#263238" stroke-miterlimit="10"/>
<path d="M269.75 116.189V362.939" stroke="#263238" stroke-miterlimit="10"/>
<path d="M277.65 116.189V362.939" stroke="#263238" stroke-miterlimit="10"/>
<path d="M285.54 116.189V362.939" stroke="#263238" stroke-miterlimit="10"/>
<path d="M293.43 116.189V362.939" stroke="#263238" stroke-miterlimit="10"/>
<path d="M301.32 116.189V362.939" stroke="#263238" stroke-miterlimit="10"/>
<path d="M221.23 358.641H79.73V366.621H221.23V358.641Z" stroke="#263238" stroke-miterlimit="10"/>
<path d="M435.13 358.641H308.07V366.621H435.13V358.641Z" stroke="#263238" stroke-miterlimit="10"/>
<path d="M296.2 358.33C296.2 358.33 310.07 359.7 317.1 368.33C317.1 368.33 324.53 358.33 337.87 358.57C341.144 354.634 343.232 349.849 343.889 344.772C344.547 339.695 343.748 334.536 341.585 329.896C339.423 325.256 335.985 321.326 331.674 318.565C327.363 315.805 322.356 314.326 317.236 314.303C312.117 314.28 307.097 315.712 302.76 318.434C298.424 321.155 294.951 325.053 292.746 329.673C290.541 334.293 289.695 339.445 290.307 344.528C290.918 349.611 292.962 354.415 296.2 358.38V358.33Z" fill="#407BFF"/>
<path opacity="0.5" d="M296.2 358.33C296.2 358.33 310.07 359.7 317.1 368.33C317.1 368.33 324.53 358.33 337.87 358.57C341.144 354.634 343.232 349.849 343.889 344.772C344.547 339.695 343.748 334.536 341.585 329.896C339.423 325.256 335.985 321.326 331.674 318.565C327.363 315.805 322.356 314.326 317.236 314.303C312.117 314.28 307.097 315.712 302.76 318.434C298.424 321.155 294.951 325.053 292.746 329.673C290.541 334.293 289.695 339.445 290.307 344.528C290.918 349.611 292.962 354.415 296.2 358.38V358.33Z" fill="white"/>
<path d="M316.64 316.281L316.18 385.811H318.52L316.64 316.281Z" fill="#263238"/>
<path d="M317.35 365.68C317.35 365.68 322.03 357.25 330.46 354.68C330.46 354.68 321.56 356.78 317.11 364.04L317.35 365.68Z" fill="#263238"/>
<path d="M317.35 341.801C317.35 341.801 322.03 333.371 330.46 330.801C330.46 330.801 321.56 332.901 317.11 340.161L317.35 341.801Z" fill="#263238"/>
<path d="M317.35 353.74C317.35 353.74 322.03 345.31 330.46 342.74C330.46 342.74 321.56 344.84 317.11 352.1L317.35 353.74Z" fill="#263238"/>
<path d="M316.65 347.891C316.65 347.891 312.13 339.461 304 336.891C304 336.891 312.59 339.001 316.88 346.261L316.65 347.891Z" fill="#263238"/>
<path d="M316.65 359.59C316.65 359.59 312.13 351.16 304 348.59C304 348.59 312.59 350.7 316.88 357.95L316.65 359.59Z" fill="#263238"/>
<path d="M361.53 353.061C361.53 353.061 378.06 354.691 386.44 364.941C386.44 364.941 395.29 353.071 411.19 353.311C415.074 348.624 417.547 342.93 418.32 336.892C419.093 330.854 418.136 324.72 415.558 319.206C412.981 313.691 408.89 309.022 403.762 305.742C398.634 302.463 392.68 300.707 386.593 300.68C380.506 300.653 374.536 302.356 369.379 305.59C364.222 308.824 360.09 313.457 357.464 318.948C354.838 324.44 353.826 330.565 354.546 336.609C355.266 342.654 357.688 348.369 361.53 353.091V353.061Z" fill="#407BFF"/>
<path opacity="0.5" d="M361.53 353.061C361.53 353.061 378.06 354.691 386.44 364.941C386.44 364.941 395.29 353.071 411.19 353.311C415.074 348.624 417.547 342.93 418.32 336.892C419.093 330.854 418.136 324.72 415.558 319.206C412.981 313.691 408.89 309.022 403.762 305.742C398.634 302.463 392.68 300.707 386.593 300.68C380.506 300.653 374.536 302.356 369.379 305.59C364.222 308.824 360.09 313.457 357.464 318.948C354.838 324.44 353.826 330.565 354.546 336.609C355.266 342.654 357.688 348.369 361.53 353.091V353.061Z" fill="white"/>
<path d="M385.89 302.951L385.33 385.811H388.13L385.89 302.951Z" fill="#263238"/>
<path d="M386.73 361.821C386.73 361.821 392.31 351.771 402.35 348.701C402.35 348.701 391.75 351.221 386.45 359.861L386.73 361.821Z" fill="#263238"/>
<path d="M386.73 333.36C386.73 333.36 392.31 323.31 402.35 320.25C402.35 320.25 391.75 322.76 386.45 331.41L386.73 333.36Z" fill="#263238"/>
<path d="M386.73 347.591C386.73 347.591 392.31 337.591 402.35 334.471C402.35 334.471 391.75 336.991 386.45 345.641L386.73 347.591Z" fill="#263238"/>
<path d="M385.9 340.61C385.9 340.61 380.52 330.61 370.83 327.5C370.83 327.5 381.06 330.01 386.17 338.66L385.9 340.61Z" fill="#263238"/>
<path d="M385.9 354.561C385.9 354.561 380.52 344.561 370.83 341.451C370.83 341.451 381.06 343.961 386.17 352.611L385.9 354.561Z" fill="#263238"/>
<path d="M428.07 362.63C428.07 362.63 439.77 363.79 445.7 371.04C447.831 368.46 450.508 366.384 453.537 364.961C456.566 363.538 459.873 362.803 463.22 362.81C465.971 359.492 467.722 355.461 468.271 351.185C468.819 346.91 468.142 342.567 466.317 338.662C464.493 334.757 461.597 331.45 457.966 329.127C454.335 326.805 450.119 325.561 445.809 325.541C441.499 325.522 437.272 326.727 433.62 329.017C429.968 331.306 427.042 334.586 425.182 338.475C423.323 342.363 422.606 346.7 423.115 350.98C423.625 355.26 425.339 359.307 428.06 362.65L428.07 362.63Z" fill="#407BFF"/>
<path opacity="0.5" d="M428.07 362.63C428.07 362.63 439.77 363.79 445.7 371.04C447.831 368.46 450.508 366.384 453.537 364.961C456.566 363.538 459.873 362.803 463.22 362.81C465.971 359.492 467.722 355.461 468.271 351.185C468.819 346.91 468.142 342.567 466.317 338.662C464.493 334.757 461.597 331.45 457.966 329.127C454.335 326.805 450.119 325.561 445.809 325.541C441.499 325.522 437.272 326.727 433.62 329.017C429.968 331.306 427.042 334.586 425.182 338.475C423.323 342.363 422.606 346.7 423.115 350.98C423.625 355.26 425.339 359.307 428.06 362.65L428.07 362.63Z" fill="white"/>
<path d="M445.31 327.16L444.92 385.81H446.89L445.31 327.16Z" fill="#263238"/>
<path d="M445.91 368.831C445.91 368.831 449.85 361.721 456.91 359.551C456.91 359.551 449.41 361.321 445.66 367.451L445.91 368.831Z" fill="#263238"/>
<path d="M445.91 348.68C445.91 348.68 449.85 341.57 456.91 339.4C456.91 339.4 449.41 341.18 445.66 347.3L445.91 348.68Z" fill="#263238"/>
<path d="M445.91 358.761C445.91 358.761 449.85 351.651 456.91 349.471C456.91 349.471 449.41 351.251 445.66 357.371L445.91 358.761Z" fill="#263238"/>
<path d="M445.32 353.821C445.32 353.821 441.51 346.711 434.65 344.541C434.65 344.541 441.89 346.311 445.51 352.441L445.32 353.821Z" fill="#263238"/>
<path d="M445.32 363.69C445.32 363.69 441.51 356.58 434.65 354.41C434.65 354.41 441.89 356.19 445.51 362.31L445.32 363.69Z" fill="#263238"/>
<path d="M54.67 358.33C54.67 358.33 68.54 359.7 75.57 368.33C75.57 368.33 83 358.33 96.34 358.57C99.614 354.634 101.702 349.849 102.359 344.772C103.017 339.695 102.218 334.536 100.055 329.896C97.8926 325.256 94.4552 321.326 90.144 318.565C85.8329 315.805 80.8257 314.326 75.7064 314.303C70.5871 314.28 65.5666 315.712 61.2305 318.434C56.8944 321.155 53.4213 325.053 51.2162 329.673C49.0112 334.293 48.1651 339.445 48.7766 344.528C49.3881 349.611 51.432 354.415 54.67 358.38V358.33Z" fill="#407BFF"/>
<path opacity="0.5" d="M54.67 358.33C54.67 358.33 68.54 359.7 75.57 368.33C75.57 368.33 83 358.33 96.34 358.57C99.614 354.634 101.702 349.849 102.359 344.772C103.017 339.695 102.218 334.536 100.055 329.896C97.8926 325.256 94.4552 321.326 90.144 318.565C85.8329 315.805 80.8257 314.326 75.7064 314.303C70.5871 314.28 65.5666 315.712 61.2305 318.434C56.8944 321.155 53.4213 325.053 51.2162 329.673C49.0112 334.293 48.1651 339.445 48.7766 344.528C49.3881 349.611 51.432 354.415 54.67 358.38V358.33Z" fill="white"/>
<path d="M75.11 316.281L74.64 385.811H76.98L75.11 316.281Z" fill="#263238"/>
<path d="M75.81 365.68C75.81 365.68 80.5 357.25 88.92 354.68C88.92 354.68 80.03 356.78 75.58 364.04L75.81 365.68Z" fill="#263238"/>
<path d="M75.81 341.801C75.81 341.801 80.5 333.371 88.92 330.801C88.92 330.801 80.03 332.901 75.58 340.161L75.81 341.801Z" fill="#263238"/>
<path d="M75.81 353.74C75.81 353.74 80.5 345.31 88.92 342.74C88.92 342.74 80.03 344.84 75.58 352.1L75.81 353.74Z" fill="#263238"/>
<path d="M75.12 347.891C75.12 347.891 70.6 339.461 62.47 336.891C62.47 336.891 71.05 339.001 75.35 346.261L75.12 347.891Z" fill="#263238"/>
<path d="M75.12 359.59C75.12 359.59 70.6 351.16 62.47 348.59C62.47 348.59 71.05 350.7 75.35 357.95L75.12 359.59Z" fill="#263238"/>
<path d="M120 353.06C120 353.06 136.53 354.69 144.91 364.94C144.91 364.94 153.76 353.07 169.66 353.31C173.542 348.623 176.014 342.929 176.786 336.892C177.558 330.854 176.599 324.722 174.022 319.208C171.444 313.694 167.353 309.026 162.225 305.747C157.098 302.468 151.144 300.713 145.058 300.686C138.971 300.659 133.002 302.361 127.846 305.595C122.689 308.828 118.557 313.46 115.931 318.951C113.304 324.441 112.291 330.565 113.01 336.609C113.729 342.653 116.149 348.369 119.99 353.09L120 353.06Z" fill="#407BFF"/>
<path opacity="0.5" d="M120 353.06C120 353.06 136.53 354.69 144.91 364.94C144.91 364.94 153.76 353.07 169.66 353.31C173.542 348.623 176.014 342.929 176.786 336.892C177.558 330.854 176.599 324.722 174.022 319.208C171.444 313.694 167.353 309.026 162.225 305.747C157.098 302.468 151.144 300.713 145.058 300.686C138.971 300.659 133.002 302.361 127.846 305.595C122.689 308.828 118.557 313.46 115.931 318.951C113.304 324.441 112.291 330.565 113.01 336.609C113.729 342.653 116.149 348.369 119.99 353.09L120 353.06Z" fill="white"/>
<path d="M144.36 302.951L143.8 385.811H146.59L144.36 302.951Z" fill="#263238"/>
<path d="M145.2 361.821C145.2 361.821 150.78 351.771 160.82 348.701C160.82 348.701 150.22 351.221 144.92 359.861L145.2 361.821Z" fill="#263238"/>
<path d="M145.2 333.36C145.2 333.36 150.78 323.31 160.82 320.25C160.82 320.25 150.22 322.76 144.92 331.41L145.2 333.36Z" fill="#263238"/>
<path d="M145.2 347.591C145.2 347.591 150.78 337.591 160.82 334.471C160.82 334.471 150.22 336.991 144.92 345.641L145.2 347.591Z" fill="#263238"/>
<path d="M144.37 340.61C144.37 340.61 138.99 330.61 129.29 327.5C129.29 327.5 139.52 330.01 144.64 338.66L144.37 340.61Z" fill="#263238"/>
<path d="M144.37 354.561C144.37 354.561 138.99 344.561 129.29 341.451C129.29 341.451 139.52 343.961 144.64 352.611L144.37 354.561Z" fill="#263238"/>
<path d="M186.54 362.63C186.54 362.63 198.24 363.79 204.17 371.04C206.3 368.459 208.977 366.382 212.006 364.959C215.036 363.536 218.343 362.802 221.69 362.81C224.441 359.492 226.192 355.461 226.741 351.185C227.289 346.91 226.612 342.567 224.787 338.662C222.963 334.757 220.067 331.45 216.436 329.127C212.805 326.805 208.589 325.561 204.279 325.541C199.969 325.522 195.742 326.727 192.09 329.017C188.438 331.306 185.512 334.586 183.652 338.475C181.793 342.363 181.076 346.7 181.585 350.98C182.095 355.26 183.809 359.307 186.53 362.65L186.54 362.63Z" fill="#407BFF"/>
<path opacity="0.5" d="M186.54 362.63C186.54 362.63 198.24 363.79 204.17 371.04C206.3 368.459 208.977 366.382 212.006 364.959C215.036 363.536 218.343 362.802 221.69 362.81C224.441 359.492 226.192 355.461 226.741 351.185C227.289 346.91 226.612 342.567 224.787 338.662C222.963 334.757 220.067 331.45 216.436 329.127C212.805 326.805 208.589 325.561 204.279 325.541C199.969 325.522 195.742 326.727 192.09 329.017C188.438 331.306 185.512 334.586 183.652 338.475C181.793 342.363 181.076 346.7 181.585 350.98C182.095 355.26 183.809 359.307 186.53 362.65L186.54 362.63Z" fill="white"/>
<path d="M203.78 327.16L203.38 385.81H205.36L203.78 327.16Z" fill="#263238"/>
<path d="M204.37 368.831C204.37 368.831 208.32 361.721 215.43 359.551C215.43 359.551 207.93 361.321 204.18 367.451L204.37 368.831Z" fill="#263238"/>
<path d="M204.37 348.68C204.37 348.68 208.32 341.57 215.43 339.4C215.43 339.4 207.93 341.18 204.18 347.3L204.37 348.68Z" fill="#263238"/>
<path d="M204.37 358.761C204.37 358.761 208.32 351.651 215.43 349.471C215.43 349.471 207.93 351.251 204.18 357.371L204.37 358.761Z" fill="#263238"/>
<path d="M203.79 353.821C203.79 353.821 199.98 346.711 193.12 344.541C193.12 344.541 200.36 346.311 203.98 352.441L203.79 353.821Z" fill="#263238"/>
<path d="M203.79 363.69C203.79 363.69 199.98 356.58 193.12 354.41C193.12 354.41 200.36 356.19 203.98 362.31L203.79 363.69Z" fill="#263238"/>
<path d="M342.599 385.089C356.992 381.732 365.938 367.342 362.581 352.95C359.223 338.557 344.834 329.611 330.441 332.968C316.048 336.325 307.102 350.715 310.46 365.107C313.817 379.5 328.206 388.446 342.599 385.089Z" fill="#263238" stroke="#263238" stroke-miterlimit="10"/>
<path d="M168.024 377.953C178.475 367.503 178.475 350.56 168.024 340.109C157.574 329.659 140.63 329.659 130.18 340.109C119.73 350.559 119.73 367.503 130.18 377.953C140.63 388.404 157.574 388.404 168.024 377.953Z" fill="#263238" stroke="#263238" stroke-miterlimit="10"/>
<path d="M318.47 308.319C318.47 308.319 311.37 303.879 278.95 293.219C246.53 282.559 225.65 278.999 193.68 279.899C161.71 280.799 118.62 292.779 110.63 295.899C102.64 299.019 99.08 299.899 100.86 302.109C102.64 304.319 112.4 312.329 111.07 315.879C109.74 319.429 88 338.999 86.64 342.069C85.28 345.139 91.09 355.839 91.97 358.509C92.85 361.179 97.75 362.059 101.74 362.509C105.73 362.959 389.98 362.509 389.98 362.509C389.98 362.509 393.98 357.629 393.09 351.409C392.2 345.189 391.25 336.989 387.24 331.739C384 327.479 380.65 322.989 372.24 322.099C366.91 321.529 319.81 308.769 318.47 308.319Z" fill="#407BFF"/>
<mask id="mask0_486_2126" style="mask-type:luminance" maskUnits="userSpaceOnUse" x="86" y="279" width="308" height="84">
<path d="M318.47 308.319C318.47 308.319 311.37 303.879 278.95 293.219C246.53 282.559 225.65 278.999 193.68 279.899C161.71 280.799 118.62 292.779 110.63 295.899C102.64 299.019 99.08 299.899 100.86 302.109C102.64 304.319 112.4 312.329 111.07 315.879C109.74 319.429 88 338.999 86.64 342.069C85.28 345.139 91.09 355.839 91.97 358.509C92.85 361.179 97.75 362.059 101.74 362.509C105.73 362.959 389.98 362.509 389.98 362.509C389.98 362.509 393.98 357.629 393.09 351.409C392.2 345.189 391.25 336.989 387.24 331.739C384 327.479 380.65 322.989 372.24 322.099C366.91 321.529 319.81 308.769 318.47 308.319Z" fill="white"/>
</mask>
<g mask="url(#mask0_486_2126)">
<path d="M318.47 308.319C318.47 308.319 311.37 303.879 278.95 293.219C246.53 282.559 225.65 278.999 193.68 279.899C161.71 280.799 118.62 292.779 110.63 295.899C102.64 299.019 99.08 299.899 100.86 302.109C102.64 304.319 112.4 312.329 111.07 315.879C109.74 319.429 88 338.999 86.64 342.069C85.28 345.139 91.09 355.839 91.97 358.509C92.85 361.179 97.75 362.059 101.74 362.509C105.73 362.959 389.98 362.509 389.98 362.509C389.98 362.509 393.98 357.629 393.09 351.409C392.2 345.189 391.25 336.989 387.24 331.739C384 327.479 380.65 322.989 372.24 322.099C366.91 321.529 319.81 308.769 318.47 308.319Z" fill="#407BFF"/>
<mask id="mask1_486_2126" style="mask-type:luminance" maskUnits="userSpaceOnUse" x="86" y="279" width="308" height="84">
<path d="M318.47 308.319C318.47 308.319 311.37 303.879 278.95 293.219C246.53 282.559 225.65 278.999 193.68 279.899C161.71 280.799 118.62 292.779 110.63 295.899C102.64 299.019 99.08 299.899 100.86 302.109C102.64 304.319 112.4 312.329 111.07 315.879C109.74 319.429 88 338.999 86.64 342.069C85.28 345.139 91.09 355.839 91.97 358.509C92.85 361.179 97.75 362.059 101.74 362.509C105.73 362.959 389.98 362.509 389.98 362.509C389.98 362.509 393.98 357.629 393.09 351.409C392.2 345.189 391.25 336.989 387.24 331.739C384 327.479 380.65 322.989 372.24 322.099C366.91 321.529 319.81 308.769 318.47 308.319Z" fill="white"/>
</mask>
<g mask="url(#mask1_486_2126)">
<path opacity="0.15" d="M318.47 308.319C318.47 308.319 311.37 303.879 278.95 293.219C246.53 282.559 225.65 278.999 193.68 279.899C161.71 280.799 118.62 292.779 110.63 295.899C102.64 299.019 99.08 299.899 100.86 302.109C102.64 304.319 112.4 312.329 111.07 315.879C109.74 319.429 88 338.999 86.64 342.069C85.28 345.139 91.09 355.839 91.97 358.509C92.85 361.179 97.75 362.059 101.74 362.509C105.73 362.959 389.98 362.509 389.98 362.509C389.98 362.509 393.98 357.629 393.09 351.409C392.2 345.189 391.25 336.989 387.24 331.739C384 327.479 380.65 322.989 372.24 322.099C366.91 321.529 319.81 308.769 318.47 308.319Z" fill="black"/>
</g>
</g>
<path d="M318.47 308.319C318.47 308.319 311.37 303.879 278.95 293.219C246.53 282.559 225.65 278.999 193.68 279.899C161.71 280.799 118.62 292.779 110.63 295.899C102.64 299.019 99.08 299.899 100.86 302.109C102.64 304.319 112.4 312.329 111.07 315.879C109.74 319.429 88 338.999 86.64 342.069C85.28 345.139 91.09 355.839 91.97 358.509C92.85 361.179 97.75 362.059 101.74 362.509C105.73 362.959 389.98 362.509 389.98 362.509C389.98 362.509 393.98 357.629 393.09 351.409C392.2 345.189 391.25 336.989 387.24 331.739C384 327.479 380.65 322.989 372.24 322.099C366.91 321.529 319.81 308.769 318.47 308.319Z" stroke="#263238" stroke-miterlimit="10"/>
<path d="M389.98 339.41H373.1V343.85H389.98V339.41Z" fill="#263238" stroke="#263238" stroke-miterlimit="10"/>
<path d="M365 331.729H367.69C369.411 331.725 371.093 332.238 372.519 333.2C373.945 334.163 375.05 335.531 375.69 337.129L378.4 343.849H369.6L365 331.729Z" fill="white" stroke="#263238" stroke-miterlimit="10"/>
<path d="M389.77 336.27C389.67 336.55 389.58 336.83 389.5 337.13L387.69 343.85H391.91C391.443 341.26 390.727 338.721 389.77 336.27Z" fill="white" stroke="#263238" stroke-miterlimit="10"/>
<path d="M318.47 308.32C318.47 308.32 311.37 303.88 278.95 293.22C271.54 290.79 264.75 288.73 258.28 287H235.42L230.54 288.34L296.27 308.34L318.47 308.32Z" fill="#263238" stroke="#263238" stroke-miterlimit="10"/>
<path d="M79.1 301.199V331.199C79.1 331.199 97.36 316.199 95.1 311.929C92.84 307.659 79.1 301.199 79.1 301.199Z" fill="#8F8F8F" stroke="#263238" stroke-miterlimit="10"/>
<path d="M296.27 308.319C296.27 308.319 289.16 303.879 256.74 293.219C224.32 282.559 203.45 278.999 171.47 279.899C139.49 280.799 96.41 292.779 88.47 295.899C80.53 299.019 76.92 299.899 78.7 302.109C80.48 304.319 90.25 312.329 88.91 315.879C87.57 319.429 65.77 338.999 64.44 342.069C63.11 345.139 68.88 355.839 69.77 358.509C70.66 361.179 75.54 362.059 79.54 362.509C83.54 362.959 367.77 362.509 367.77 362.509C367.77 362.509 371.77 357.629 370.88 351.409C369.99 345.189 369 336.999 365 331.729C361.76 327.469 358.4 322.979 350 322.089C344.71 321.529 297.6 308.769 296.27 308.319Z" fill="#407BFF"/>
<mask id="mask2_486_2126" style="mask-type:luminance" maskUnits="userSpaceOnUse" x="64" y="279" width="308" height="84">
<path d="M296.27 308.319C296.27 308.319 289.16 303.879 256.74 293.219C224.32 282.559 203.45 278.999 171.47 279.899C139.49 280.799 96.41 292.779 88.47 295.899C80.53 299.019 76.92 299.899 78.7 302.109C80.48 304.319 90.25 312.329 88.91 315.879C87.57 319.429 65.77 338.999 64.44 342.069C63.11 345.139 68.88 355.839 69.77 358.509C70.66 361.179 75.54 362.059 79.54 362.509C83.54 362.959 367.77 362.509 367.77 362.509C367.77 362.509 371.77 357.629 370.88 351.409C369.99 345.189 369 336.999 365 331.729C361.76 327.469 358.4 322.979 350 322.089C344.71 321.529 297.6 308.769 296.27 308.319Z" fill="white"/>
</mask>
<g mask="url(#mask2_486_2126)">
<path opacity="0.15" d="M365 331.729C361.76 327.469 358.4 322.979 350 322.089C348.6 321.939 344.27 320.939 338.64 319.539C311.8 319.269 296.85 330.119 256.75 333.799C204.53 338.579 168.4 325.529 124.88 320.299C106.73 318.129 92.08 320.799 81.15 324.639C74.3 331.559 65.27 340.109 64.43 342.069C63.1 345.179 68.87 355.839 69.76 358.509C70.65 361.179 75.53 362.059 79.53 362.509C83.53 362.959 367.76 362.509 367.76 362.509C367.76 362.509 371.76 357.629 370.87 351.409C369.98 345.189 369 336.999 365 331.729Z" fill="black"/>
</g>
<path d="M296.27 308.319C296.27 308.319 289.16 303.879 256.74 293.219C224.32 282.559 203.45 278.999 171.47 279.899C139.49 280.799 96.41 292.779 88.47 295.899C80.53 299.019 76.92 299.899 78.7 302.109C80.48 304.319 90.25 312.329 88.91 315.879C87.57 319.429 65.77 338.999 64.44 342.069C63.11 345.139 68.88 355.839 69.77 358.509C70.66 361.179 75.54 362.059 79.54 362.509C83.54 362.959 367.77 362.509 367.77 362.509C367.77 362.509 371.77 357.629 370.88 351.409C369.99 345.189 369 336.999 365 331.729C361.76 327.469 358.4 322.979 350 322.089C344.71 321.529 297.6 308.769 296.27 308.319Z" stroke="#263238" stroke-miterlimit="10"/>
<path d="M128.31 291.938L146.08 310.708H276.7V306.448C276.7 306.448 249.93 295.938 221.7 290.448C193.47 284.958 186.42 285.448 173.7 285.688C160.98 285.928 128.31 291.938 128.31 291.938Z" fill="#8F8F8F"/>
<mask id="mask3_486_2126" style="mask-type:luminance" maskUnits="userSpaceOnUse" x="128" y="285" width="149" height="26">
<path d="M128.31 291.938L146.08 310.708H276.7V306.448C276.7 306.448 249.93 295.938 221.7 290.448C193.47 284.958 186.42 285.448 173.7 285.688C160.98 285.928 128.31 291.938 128.31 291.938Z" fill="white"/>
</mask>
<g mask="url(#mask3_486_2126)">
<path d="M192 302.497C175.373 298.701 157.979 300.137 142.2 306.607L146.08 310.707H276.7V306.448C276.7 306.448 272.37 304.747 265.35 302.357C250.66 307.997 221.52 308.997 192 302.497Z" fill="#263238" stroke="#263238" stroke-miterlimit="10"/>
</g>
<path d="M128.31 291.938L146.08 310.708H276.7V306.448C276.7 306.448 249.93 295.938 221.7 290.448C193.47 284.958 186.42 285.448 173.7 285.688C160.98 285.928 128.31 291.938 128.31 291.938Z" stroke="#263238" stroke-width="4" stroke-miterlimit="10"/>
<path d="M187.37 313.209V353.999" stroke="#263238" stroke-miterlimit="10"/>
<path d="M124.923 385.117C139.319 381.775 148.28 367.395 144.938 352.999C141.596 338.603 127.216 329.641 112.82 332.984C98.4235 336.326 89.4624 350.706 92.8046 365.102C96.1468 379.498 110.527 388.459 124.923 385.117Z" fill="#263238" stroke="#263238" stroke-miterlimit="10"/>
<path d="M118.9 339.719C115.08 339.719 111.345 340.852 108.169 342.975C104.993 345.098 102.518 348.116 101.057 351.646C99.5964 355.176 99.2157 359.06 99.9633 362.807C100.711 366.554 102.553 369.994 105.256 372.694C107.96 375.393 111.403 377.23 115.151 377.971C118.899 378.713 122.783 378.326 126.31 376.86C129.838 375.394 132.852 372.914 134.97 369.735C137.088 366.556 138.216 362.819 138.21 358.999C138.199 353.883 136.161 348.981 132.541 345.367C128.921 341.753 124.015 339.721 118.9 339.719ZM131.9 355.159L120.65 357.269L123.84 346.419C125.753 347.173 127.471 348.352 128.864 349.866C130.256 351.379 131.287 353.189 131.88 355.159H131.9ZM119.9 358.059V359.999H117.97V358.059H119.9ZM115.07 346.059L117.18 357.309L106.32 354.109C107.065 352.198 108.233 350.482 109.736 349.087C111.239 347.693 113.039 346.658 115 346.059H115.07ZM105.96 362.899L117.21 360.789L114 371.639C112.077 370.894 110.351 369.719 108.952 368.204C107.553 366.689 106.52 364.874 105.93 362.899H105.96ZM122.8 371.999L120.69 360.759L131.52 363.999C130.762 365.907 129.581 367.619 128.065 369.005C126.549 370.391 124.739 371.414 122.77 371.999H122.8Z" fill="white" stroke="#263238" stroke-miterlimit="10"/>
<path d="M124.89 359C124.89 357.813 124.538 356.653 123.879 355.667C123.22 354.68 122.282 353.911 121.186 353.457C120.09 353.003 118.883 352.884 117.719 353.115C116.556 353.347 115.486 353.918 114.647 354.757C113.808 355.596 113.237 356.666 113.005 357.829C112.774 358.993 112.893 360.2 113.347 361.296C113.801 362.392 114.57 363.33 115.557 363.989C116.543 364.648 117.703 365 118.89 365C120.481 365 122.007 364.368 123.133 363.243C124.258 362.117 124.89 360.591 124.89 359Z" fill="white" stroke="#263238" stroke-miterlimit="10"/>
<path d="M326.135 377.953C336.585 367.503 336.585 350.56 326.135 340.109C315.685 329.659 298.741 329.659 288.291 340.109C277.84 350.56 277.84 367.503 288.291 377.953C298.741 388.404 315.685 388.404 326.135 377.953Z" fill="#263238" stroke="#263238" stroke-miterlimit="10"/>
<path d="M307.21 339.719C303.39 339.719 299.655 340.852 296.479 342.975C293.303 345.098 290.828 348.116 289.367 351.646C287.906 355.176 287.526 359.06 288.273 362.807C289.021 366.554 290.863 369.994 293.566 372.694C296.27 375.393 299.714 377.23 303.461 377.971C307.209 378.713 311.093 378.326 314.62 376.86C318.148 375.394 321.162 372.914 323.28 369.735C325.398 366.556 326.526 362.819 326.52 358.999C326.509 353.883 324.471 348.981 320.851 345.367C317.231 341.753 312.325 339.721 307.21 339.719ZM320.21 355.159L308.97 357.269L312.16 346.419C314.071 347.174 315.786 348.353 317.175 349.867C318.564 351.381 319.592 353.19 320.18 355.159H320.21ZM308.21 358.059V359.999H306.27V358.059H308.21ZM303.37 346.059L305.48 357.309L294.63 354.109C295.376 352.194 296.548 350.475 298.057 349.08C299.566 347.686 301.373 346.652 303.34 346.059H303.37ZM294.27 362.899L305.52 360.789L302.32 371.639C300.396 370.894 298.668 369.72 297.267 368.205C295.867 366.69 294.831 364.875 294.24 362.899H294.27ZM311.11 371.999L309 360.759L319.82 363.999C319.064 365.907 317.885 367.619 316.371 369.005C314.857 370.391 313.048 371.414 311.08 371.999H311.11Z" fill="white" stroke="#263238" stroke-miterlimit="10"/>
<path d="M313.2 359C313.2 357.813 312.848 356.653 312.189 355.667C311.53 354.68 310.592 353.911 309.496 353.457C308.4 353.003 307.193 352.884 306.029 353.115C304.866 353.347 303.796 353.918 302.957 354.757C302.118 355.596 301.547 356.666 301.315 357.829C301.084 358.993 301.203 360.2 301.657 361.296C302.111 362.392 302.88 363.33 303.867 363.989C304.853 364.648 306.013 365 307.2 365C308.791 365 310.317 364.368 311.443 363.243C312.568 362.117 313.2 360.591 313.2 359Z" fill="white" stroke="#263238" stroke-miterlimit="10"/>
<path d="M365 331.73C365 331.73 345.08 330.73 344.19 331.73C343.3 332.73 350.85 340.73 353.52 342.52C355.63 343.93 365.57 343.66 369.59 343.52C368.78 339.22 367.47 334.93 365 331.73Z" fill="white" stroke="#263238" stroke-miterlimit="10"/>
<path d="M190.64 285.819C189.33 285.729 188.1 285.669 186.9 285.629L183.55 310.629H192.43L190.64 285.819Z" fill="#263238" stroke="#263238" stroke-miterlimit="10"/>
<path d="M223.7 377.9C222.111 378.922 220.438 379.809 218.7 380.55C216.56 381.37 215.14 381.87 215.55 383.2C215.96 384.53 218.29 385.64 221.25 386.25C224.21 386.86 229.49 385.54 230.92 385.13C232.35 384.72 232.55 382.38 231.53 381.06C230.51 379.74 225.43 377.19 223.7 377.9Z" fill="#263238" stroke="#263238" stroke-linecap="round" stroke-linejoin="round"/>
<path d="M224.62 385.541C222.17 385.541 218.1 384.621 218.1 383.711C218.1 382.801 219.1 382.081 217.9 381.771C216.7 381.461 215.9 383.131 215.7 383.521C216.36 384.701 218.55 385.691 221.26 386.251C224.26 386.861 229.5 385.541 230.93 385.131C231.187 385.043 231.418 384.895 231.605 384.698C231.791 384.501 231.927 384.262 232 384.001C229.633 384.888 227.144 385.408 224.62 385.541Z" fill="white" stroke="#263238" stroke-linecap="round" stroke-linejoin="round"/>
<path d="M236.22 312.541L236.83 314.541C236.45 314.847 236.143 315.233 235.932 315.673C235.721 316.112 235.611 316.593 235.61 317.081C235.836 318.204 236.448 319.212 237.34 319.931" stroke="#263238" stroke-linecap="round" stroke-linejoin="round"/>
<path d="M230 308.57C229.381 310.232 228.874 311.932 228.48 313.66V316.41C228.48 316.92 226.48 327.71 226.03 334.33C225.58 340.95 225.32 348.68 224.81 350.42C224.3 352.16 224.91 353.06 225.01 355.51C225.11 357.96 225.22 370.27 225.22 370.27C225.22 370.27 224.71 373.53 224.61 374.34C224.51 375.15 223.49 375.46 223.18 375.97C222.846 376.795 222.576 377.644 222.37 378.51C223.954 378.94 225.393 379.786 226.54 380.96C227.97 382.69 231.83 384.83 232.34 384.72C232.85 384.61 233.16 383.2 233.97 381.26C234.78 379.32 234.69 378.31 235.09 377.5C235.49 376.69 236.09 375.36 237.03 369.25C237.97 363.14 238.76 354.08 239.27 352.86C239.78 351.64 242.42 347.06 242.42 347.06C244.721 342.626 246.696 338.031 248.33 333.31C249.823 328.932 250.946 324.436 251.69 319.87C252.165 316.733 252.469 313.571 252.6 310.4V309.4C252.6 309.4 248.84 310.82 242.12 310.11C235.4 309.4 230 308.57 230 308.57Z" fill="white" stroke="#263238" stroke-linecap="round" stroke-linejoin="round"/>
<path d="M244.06 314.48C244.06 314.48 239.48 316.92 238.77 318.14C238.06 319.36 237.14 324.56 235.1 330.97C233.06 337.38 231.23 342.27 229.5 347.67C228.404 350.762 227.688 353.976 227.37 357.24C226.75 361.24 225.37 371.8 225.37 371.8" stroke="#263238" stroke-linecap="round" stroke-linejoin="round"/>
<path d="M232 382.89C232 382.89 234.24 382.08 234.24 377.5C234.24 372.92 233.42 369.66 234.24 365.28C235.06 360.9 237.09 353.77 238.31 351.64C239.53 349.51 240.96 346.75 240.96 346.75" stroke="#263238" stroke-linecap="round" stroke-linejoin="round"/>
<path d="M239.79 345.22C239.79 345.22 243.35 347.67 244.06 346.75C245.158 344.8 246.078 342.755 246.81 340.64C247.73 338.3 248.13 337.18 248.13 337.18C248.13 337.18 249.13 337.08 249.25 336.18C249.37 335.28 249.56 333.53 249.56 333.53C248.463 333.497 247.372 333.364 246.3 333.13C244.37 332.72 243.65 332.82 243.25 333.74C242.929 334.362 242.655 335.008 242.43 335.67C241.82 337.3 239.43 342.8 239.38 343.61C239.33 344.42 239.18 344.61 239.79 345.22Z" fill="white" stroke="#263238" stroke-linecap="round" stroke-linejoin="round"/>
<path d="M248.13 337.179C246.731 337.099 245.338 336.928 243.96 336.669C242.84 336.369 243.45 334.939 243.45 334.939" fill="#407BFF"/>
<path d="M248.13 337.179C246.731 337.099 245.338 336.928 243.96 336.669C242.84 336.369 243.45 334.939 243.45 334.939" stroke="#263238" stroke-linecap="round" stroke-linejoin="round"/>
<path d="M246.71 333.11C246.71 333.11 249.36 324.56 249.71 322.82L250.12 321.09" stroke="#263238" stroke-linecap="round" stroke-linejoin="round"/>
<path d="M247.52 312.131C247.52 312.131 246.81 315.701 247.52 317.631C248.337 319.304 249.565 320.742 251.09 321.811" stroke="#263238" stroke-linecap="round" stroke-linejoin="round"/>
<path d="M232.76 313.66C232.76 313.66 238.06 315.19 241.21 314.07" stroke="#263238" stroke-linecap="round" stroke-linejoin="round"/>
<path d="M242.43 273.649C242.43 273.649 235.51 275.379 233.43 275.789C231.35 276.199 230.28 276.199 229.97 277.109C227.747 281.269 225.157 285.221 222.23 288.919C219.89 291.469 219.69 293.919 220.4 295.229C221.11 296.539 221.93 297.169 224.98 296.349C226.945 295.754 228.687 294.584 229.98 292.989C229.98 292.989 230.7 300.629 229.68 303.679C228.66 306.729 228.25 309.179 228.96 309.679C232.05 311.381 235.513 312.291 239.04 312.329C244.64 312.529 251.04 312.019 252.04 310.999C252.386 310.721 252.657 310.362 252.832 309.954C253.006 309.546 253.078 309.101 253.04 308.659C253.04 307.949 252.64 303.169 253.86 299.399C255.08 295.629 258.54 285.959 258.64 282.289C258.74 278.619 257.32 278.119 254.57 276.999C251.82 275.879 247.44 273.949 246.43 273.739C245.1 273.622 243.764 273.592 242.43 273.649Z" fill="#263238" stroke="#263238" stroke-linecap="round" stroke-linejoin="round"/>
<path d="M241 271.821C240.165 272.357 239.382 272.97 238.66 273.651C238.55 273.961 234.99 279.651 235.4 279.651C235.81 279.651 240.29 277.411 240.29 277.411C240.29 277.411 242.52 274.051 242.29 272.721C242.281 272.57 242.239 272.422 242.165 272.29C242.091 272.158 241.988 272.044 241.864 271.957C241.74 271.871 241.597 271.813 241.448 271.79C241.298 271.766 241.145 271.777 241 271.821Z" fill="white" stroke="#263238" stroke-linecap="round" stroke-linejoin="round"/>
<path d="M240.14 270.69C240.246 272.942 240.075 275.199 239.63 277.41C238.92 280.16 238.41 281.99 239.43 282.3C240.45 282.61 243.81 277.61 244.72 276.19C245.257 275.372 245.668 274.479 245.94 273.54L246.66 265.6C246.66 265.6 242.58 270 240.14 270.69Z" fill="white" stroke="#263238" stroke-linecap="round" stroke-linejoin="round"/>
<path d="M236.48 251.75C236.48 251.75 235.48 260.41 235.48 263.67C235.48 266.93 237.62 271.1 238.63 271.5C239.64 271.9 242.2 272.32 243.22 271.61C244.24 270.9 247.08 266.52 247.08 266.52C248.043 263.459 248.759 260.326 249.22 257.15C249.53 253.69 248.61 252.06 245.45 251.04C242.29 250.02 238.1 250 236.48 251.75Z" fill="white" stroke="#263238" stroke-linecap="round" stroke-linejoin="round"/>
<path d="M238.92 259.189C238.92 259.189 238 264.189 238.41 264.279C239.017 264.353 239.628 264.386 240.24 264.379" stroke="#263238" stroke-linecap="round" stroke-linejoin="round"/>
<path d="M238.82 266.11C238.82 266.11 241.57 266.72 242.99 265.4" stroke="#263238" stroke-linecap="round" stroke-linejoin="round"/>
<path d="M242.68 259.28C242.68 259.7 242.43 260.02 242.2 260C241.97 259.98 241.83 259.61 241.87 259.2C241.91 258.79 242.13 258.45 242.36 258.48C242.59 258.51 242.73 258.86 242.68 259.28Z" fill="#263238"/>
<path d="M238.41 258.869C238.41 259.289 238.15 259.609 237.93 259.589C237.71 259.569 237.56 259.209 237.6 258.789C237.64 258.369 237.86 258.049 238.08 258.069C238.3 258.089 238.45 258.449 238.41 258.869Z" fill="#263238"/>
<path d="M236.48 257.351C236.621 257.164 236.801 257.011 237.008 256.903C237.215 256.795 237.443 256.734 237.676 256.724C237.91 256.714 238.142 256.757 238.357 256.848C238.572 256.939 238.765 257.076 238.92 257.251" stroke="#263238" stroke-linecap="round" stroke-linejoin="round"/>
<path d="M240.85 257.149C240.85 257.149 242.79 255.619 243.85 257.249" stroke="#263238" stroke-linecap="round" stroke-linejoin="round"/>
<path d="M234.85 250.33C234.843 250.413 234.843 250.497 234.85 250.58C235.009 251.099 235.294 251.571 235.68 251.953C236.065 252.335 236.54 252.616 237.06 252.77C239.3 253.69 244.59 252.57 246.42 253.18C248.25 253.79 247.42 255.52 246.32 256.13C245.22 256.74 245 257.05 245.51 257.76C246.02 258.47 247.24 259.19 246.83 260C246.42 260.81 246.22 261.63 246.93 261.73C247.64 261.83 248.15 261.83 248.46 261.43C248.77 261.03 250.8 256.64 250.8 254.1C250.8 251.56 249.58 250.43 246.73 249.31C243.88 248.19 237.97 247.48 236.24 248.5C235.877 248.669 235.56 248.924 235.318 249.243C235.076 249.562 234.915 249.935 234.85 250.33Z" fill="#263238" stroke="#263238" stroke-linecap="round" stroke-linejoin="round"/>
<path d="M246.66 265.371C246.919 265.628 247.258 265.79 247.62 265.832C247.983 265.873 248.349 265.792 248.66 265.601C249.78 264.891 250.29 262.341 249.58 261.021C248.87 259.701 247.44 262.241 247.44 262.241" fill="white"/>
<path d="M246.66 265.371C246.919 265.628 247.258 265.79 247.62 265.832C247.983 265.873 248.349 265.792 248.66 265.601C249.78 264.891 250.29 262.341 249.58 261.021C248.87 259.701 247.44 262.241 247.44 262.241" stroke="#263238" stroke-linecap="round" stroke-linejoin="round"/>
<path d="M242.43 273.65C242.43 273.65 242.23 282.71 242.84 281.65C243.45 280.59 248.54 273.92 248.54 273.92L247.32 270.35L242.43 273.65Z" fill="white" stroke="#263238" stroke-linecap="round" stroke-linejoin="round"/>
<path d="M251.39 283.63L247.93 294.42L254.24 302.42C254.24 302.42 254.55 303.03 255.06 302.32C255.57 301.61 255.97 301.61 256.79 297.74C257.61 293.87 258.79 284.5 258.72 282.26C258.65 280.02 258.21 278.9 256.48 278.6" fill="#263238"/>
<path d="M251.39 283.63L247.93 294.42L254.24 302.42C254.24 302.42 254.55 303.03 255.06 302.32C255.57 301.61 255.97 301.61 256.79 297.74C257.61 293.87 258.79 284.5 258.72 282.26C258.65 280.02 258.21 278.9 256.48 278.6" stroke="#263238" stroke-linecap="round" stroke-linejoin="round"/>
<path d="M232.05 296.15C232.05 296.15 247.83 302.15 249.97 302.26C252.11 302.37 252.61 300.94 251.7 298.26C250.79 295.58 248.03 294.08 245.7 293.37C243.019 292.743 240.225 292.777 237.56 293.47C235.2 294.11 232.05 295.34 232.05 296.15Z" fill="white" stroke="#263238" stroke-linecap="round" stroke-linejoin="round"/>
<path d="M245.18 293.3C245.18 293.3 248.95 301.44 249.18 302.16C249.41 302.88 253.26 303.38 254.48 303.28C255.7 303.18 255.19 301.34 253.97 298.7C252.75 296.06 250.81 293.7 249.39 293.3C247.995 293.077 246.575 293.077 245.18 293.3Z" fill="white" stroke="#263238" stroke-linecap="round" stroke-linejoin="round"/>
<path d="M224.11 290.449C222.791 290.555 221.491 290.827 220.24 291.259C218.81 291.869 218.51 296.149 219.24 297.679C219.97 299.209 222.19 299.199 223.72 299.099C224.152 299.085 224.576 298.977 224.962 298.784C225.349 298.591 225.689 298.316 225.96 297.979L227.08 290.449H224.11Z" fill="#263238" stroke="#263238" stroke-linecap="round" stroke-linejoin="round"/>
<path d="M227.06 290.449C227.06 290.449 238.56 290.449 241.41 290.349C244.26 290.249 244.98 290.959 245.59 291.979C246.2 292.999 246.4 293.399 246.4 293.399C242.791 293.747 239.239 294.533 235.82 295.739C231.13 297.579 227.06 299.199 225.63 299.199C224.2 299.199 223.63 295.539 224.21 292.989C224.329 292.306 224.675 291.684 225.192 291.222C225.71 290.761 226.368 290.489 227.06 290.449Z" fill="white" stroke="#263238" stroke-linecap="round" stroke-linejoin="round"/>
<path d="M223.8 289.74C223.8 289.74 228.69 289.63 228.59 290.55C228.49 291.47 227.59 298.39 227.26 299C226.93 299.61 224.01 299.92 222.58 299.82C221.15 299.72 221.66 295.13 222.58 292.99C223.057 291.935 223.464 290.849 223.8 289.74Z" fill="white" stroke="#263238" stroke-linecap="round" stroke-linejoin="round"/>
<path d="M238.36 313C238.36 313 239.18 314.22 238.87 314.53C238.56 314.84 237.04 316.26 237.14 317.17C237.188 317.699 237.401 318.2 237.75 318.6" stroke="#263238" stroke-linecap="round" stroke-linejoin="round"/>
</svg>
