<svg width="500" height="500" viewBox="0 0 500 500" fill="none" xmlns="http://www.w3.org/2000/svg">
<path d="M464.86 277.391C450.13 316.821 420.05 359.501 377.72 372.141C313.72 391.241 306.12 442.791 191.56 438.011C174.826 437.395 158.208 434.961 142 430.751C134.088 428.66 126.316 426.071 118.73 423.001C51.8 395.891 16.89 336.231 14 273.811C10.18 191.701 67.46 152.571 104.69 129.661C141.92 106.751 186.79 18.0009 299.44 21.7709C316.643 22.287 333.729 24.7835 350.36 29.2109C388.27 39.4709 426.8 62.1609 449.2 95.3309C450.88 97.8309 452.487 100.378 454.02 102.971C484 153.821 484.93 223.631 464.86 277.391Z" fill="#407BFF"/>
<path opacity="0.7" d="M464.86 277.391C450.13 316.821 420.05 359.501 377.72 372.141C313.72 391.241 306.12 442.791 191.56 438.011C174.826 437.395 158.208 434.961 142 430.751C134.088 428.66 126.316 426.071 118.73 423.001C51.8 395.891 16.89 336.231 14 273.811C10.18 191.701 67.46 152.571 104.69 129.661C141.92 106.751 186.79 18.0009 299.44 21.7709C316.643 22.287 333.729 24.7835 350.36 29.2109C388.27 39.4709 426.8 62.1609 449.2 95.3309C450.88 97.8309 452.487 100.378 454.02 102.971C484 153.821 484.93 223.631 464.86 277.391Z" fill="white"/>
<g opacity="0.3">
<path d="M25.73 66.25V294.58H99.9V66.25H25.73ZM96.16 71.33V105H65.29V71.33H96.16ZM60.68 71.33V105H29.46V71.33H60.68ZM29.46 110.38H60.68V143.81H29.46V110.38ZM96.16 289.51H29.46V149.61H96.16V289.51ZM65.29 143.81V110.38H96.16V143.81H65.29Z" stroke="black" stroke-linecap="round" stroke-linejoin="round"/>
<path d="M99.61 66.25V294.58H173.78V66.25H99.61ZM170 71.33V105H139.17V71.33H170ZM134.52 71.33V105H103.34V71.33H134.52ZM103.3 110.38H134.52V143.81H103.34L103.3 110.38ZM170 289.51H103.3V149.61H170V289.51ZM139.13 143.81V110.38H170V143.81H139.13Z" stroke="black" stroke-linecap="round" stroke-linejoin="round"/>
<path d="M79.56 187.51L60.94 210.69" stroke="black" stroke-linecap="round" stroke-linejoin="round"/>
<path d="M84.18 181.76L81.22 185.44" stroke="black" stroke-linecap="round" stroke-linejoin="round"/>
<path d="M40.69 227.59L36.88 232.07" stroke="black" stroke-linecap="round" stroke-linejoin="round"/>
<path d="M65.42 198.529L43.55 224.229" stroke="black" stroke-linecap="round" stroke-linejoin="round"/>
<path d="M154.59 194.59L135.97 217.76" stroke="black" stroke-linecap="round" stroke-linejoin="round"/>
<path d="M159.21 188.84L156.25 192.52" stroke="black" stroke-linecap="round" stroke-linejoin="round"/>
<path d="M115.72 234.66L111.91 239.15" stroke="black" stroke-linecap="round" stroke-linejoin="round"/>
<path d="M140.45 205.609L118.58 231.309" stroke="black" stroke-linecap="round" stroke-linejoin="round"/>
<path d="M163.19 76.6309L154.27 87.7209" stroke="black" stroke-linecap="round" stroke-linejoin="round"/>
<path d="M165.4 73.8691L163.98 75.6391" stroke="black" stroke-linecap="round" stroke-linejoin="round"/>
<path d="M144.58 95.8105L142.76 97.9505" stroke="black" stroke-linecap="round" stroke-linejoin="round"/>
<path d="M156.42 81.9004L145.95 94.2004" stroke="black" stroke-linecap="round" stroke-linejoin="round"/>
<path d="M128.41 76.6309L119.49 87.7209" stroke="black" stroke-linecap="round" stroke-linejoin="round"/>
<path d="M130.62 73.8691L129.2 75.6391" stroke="black" stroke-linecap="round" stroke-linejoin="round"/>
<path d="M109.8 95.8105L107.98 97.9505" stroke="black" stroke-linecap="round" stroke-linejoin="round"/>
<path d="M121.64 81.9004L111.17 94.2004" stroke="black" stroke-linecap="round" stroke-linejoin="round"/>
<path d="M128.41 118.18L119.49 129.28" stroke="black" stroke-linecap="round" stroke-linejoin="round"/>
<path d="M130.62 115.43L129.2 117.19" stroke="black" stroke-linecap="round" stroke-linejoin="round"/>
<path d="M109.8 137.369L107.98 139.509" stroke="black" stroke-linecap="round" stroke-linejoin="round"/>
<path d="M121.64 123.461L111.17 135.761" stroke="black" stroke-linecap="round" stroke-linejoin="round"/>
<path d="M159.43 118.18L150.51 129.28" stroke="black" stroke-linecap="round" stroke-linejoin="round"/>
<path d="M161.64 115.43L160.22 117.19" stroke="black" stroke-linecap="round" stroke-linejoin="round"/>
<path d="M140.82 137.369L139 139.509" stroke="black" stroke-linecap="round" stroke-linejoin="round"/>
<path d="M152.66 123.461L142.19 135.761" stroke="black" stroke-linecap="round" stroke-linejoin="round"/>
<path d="M89.87 76.6309L80.95 87.7209" stroke="black" stroke-linecap="round" stroke-linejoin="round"/>
<path d="M92.08 73.8691L90.66 75.6391" stroke="black" stroke-linecap="round" stroke-linejoin="round"/>
<path d="M71.26 95.8105L69.44 97.9505" stroke="black" stroke-linecap="round" stroke-linejoin="round"/>
<path d="M83.1 81.9004L72.63 94.2004" stroke="black" stroke-linecap="round" stroke-linejoin="round"/>
<path d="M89.87 117.221L80.95 128.311" stroke="black" stroke-linecap="round" stroke-linejoin="round"/>
<path d="M92.08 114.461L90.66 116.231" stroke="black" stroke-linecap="round" stroke-linejoin="round"/>
<path d="M71.26 136.4L69.44 138.54" stroke="black" stroke-linecap="round" stroke-linejoin="round"/>
<path d="M83.1 122.49L72.63 134.79" stroke="black" stroke-linecap="round" stroke-linejoin="round"/>
<path d="M56.03 117.221L47.11 128.311" stroke="black" stroke-linecap="round" stroke-linejoin="round"/>
<path d="M58.24 114.461L56.82 116.231" stroke="black" stroke-linecap="round" stroke-linejoin="round"/>
<path d="M37.42 136.4L35.6 138.54" stroke="black" stroke-linecap="round" stroke-linejoin="round"/>
<path d="M49.26 122.49L38.79 134.79" stroke="black" stroke-linecap="round" stroke-linejoin="round"/>
<path d="M53.68 76.6309L44.76 87.7209" stroke="black" stroke-linecap="round" stroke-linejoin="round"/>
<path d="M55.89 73.8691L54.47 75.6391" stroke="black" stroke-linecap="round" stroke-linejoin="round"/>
<path d="M35.07 95.8105L33.25 97.9505" stroke="black" stroke-linecap="round" stroke-linejoin="round"/>
<path d="M46.91 81.9004L36.44 94.2004" stroke="black" stroke-linecap="round" stroke-linejoin="round"/>
</g>
<path d="M446.23 346.19V271.34C446.231 269.706 445.91 268.088 445.286 266.578C444.661 265.068 443.745 263.696 442.589 262.541C441.434 261.386 440.062 260.469 438.552 259.845C437.042 259.22 435.424 258.899 433.79 258.9H320.07V347.06" stroke="#263238" stroke-linejoin="round"/>
<path d="M321 258.9H205.19C203.557 258.9 201.94 259.222 200.431 259.848C198.922 260.473 197.552 261.389 196.397 262.545C195.243 263.7 194.327 265.071 193.703 266.581C193.079 268.09 192.759 269.707 192.76 271.34V346.19" stroke="#263238" stroke-linejoin="round"/>
<path d="M457.47 354.459V383.569H320.13V346.189H449.2C451.393 346.192 453.495 347.064 455.045 348.615C456.595 350.165 457.467 352.267 457.47 354.459Z" stroke="#263238" stroke-linejoin="round"/>
<path d="M321.18 346.189H189.8C188.714 346.189 187.639 346.403 186.635 346.819C185.632 347.235 184.72 347.844 183.952 348.612C183.184 349.38 182.575 350.291 182.16 351.295C181.744 352.298 181.53 353.373 181.53 354.459V383.569H321.18" stroke="#263238" stroke-linejoin="round"/>
<path d="M457.7 383.57H181.53V430.47H457.7V383.57Z" stroke="#263238" stroke-linejoin="round"/>
<path d="M192.76 296.521C191.984 295.711 191.053 295.066 190.022 294.625C188.991 294.183 187.882 293.954 186.76 293.951H161.76C160.664 293.95 159.578 294.165 158.565 294.583C157.552 295.002 156.632 295.616 155.856 296.39C155.081 297.165 154.466 298.085 154.046 299.097C153.626 300.11 153.41 301.195 153.41 302.291V422.141C153.411 423.236 153.628 424.321 154.049 425.332C154.469 426.343 155.084 427.262 155.86 428.035C156.635 428.809 157.555 429.422 158.568 429.84C159.58 430.258 160.665 430.472 161.76 430.471H186.76" stroke="#263238" stroke-linejoin="round"/>
<path d="M449.36 430.471H474.36C476.57 430.471 478.69 429.594 480.254 428.032C481.818 426.47 482.697 424.351 482.7 422.141V302.291C482.7 300.079 481.821 297.958 480.257 296.394C478.693 294.83 476.572 293.951 474.36 293.951H449.36C448.286 293.95 447.222 294.161 446.23 294.571" stroke="#263238" stroke-linejoin="round"/>
<path d="M258.34 289.531H228.86V331.041H258.34V289.531Z" fill="white" stroke="#263238" stroke-miterlimit="10"/>
<path d="M256.74 291.781H230.46V328.781H256.74V291.781Z" fill="white" stroke="#263238" stroke-miterlimit="10"/>
<path d="M249.28 302.291H237.93V318.271H249.28V302.291Z" fill="#CFCFCF" stroke="#263238" stroke-miterlimit="10"/>
<path d="M287.47 276.451C287.47 276.451 282.59 274.501 279.66 273.201C277.983 272.503 276.603 271.24 275.76 269.631L258.69 324.741L266.69 326.861L287.47 276.451Z" fill="white" stroke="#263238" stroke-miterlimit="10"/>
<path d="M258.69 324.741L282.1 267.681C282.1 267.681 281.61 266.681 286.49 269.631C291.37 272.581 292.34 279.381 292.34 279.381L267 328.161L258.69 324.741Z" fill="white" stroke="#263238" stroke-miterlimit="10"/>
<path d="M295.66 316.561H222.08V364.941H295.66V316.561Z" fill="#CFCFCF" stroke="#263238" stroke-miterlimit="10"/>
<path d="M295.66 316.561H257.86V364.941H295.66V316.561Z" fill="#CFCFCF" stroke="#263238" stroke-miterlimit="10"/>
<path d="M303.73 364.9H213.38V441.57H303.73V364.9Z" fill="#CFCFCF" stroke="#263238" stroke-miterlimit="10"/>
<path d="M303.73 364.9H257.31V441.57H303.73V364.9Z" fill="#CFCFCF" stroke="#263238" stroke-miterlimit="10"/>
<path d="M63.81 316.32C68.4492 316.32 72.21 306.453 72.21 294.28C72.21 282.108 68.4492 272.24 63.81 272.24C59.1708 272.24 55.41 282.108 55.41 294.28C55.41 306.453 59.1708 316.32 63.81 316.32Z" fill="#407BFF" stroke="#263238" stroke-miterlimit="10"/>
<path d="M89.9218 280.714C92.5496 272.445 91.7614 264.814 88.1612 263.67C84.561 262.526 79.5122 268.302 76.8844 276.571C74.2565 284.84 75.0448 292.47 78.645 293.615C82.2452 294.759 87.294 288.983 89.9218 280.714Z" fill="#407BFF" stroke="#263238" stroke-miterlimit="10"/>
<path d="M28.26 330.551C19.7 329.101 13.26 324.911 13.91 321.181C14.56 317.451 21.98 315.621 30.54 317.071C39.1 318.521 45.54 322.711 44.89 326.431C44.24 330.151 36.81 332.001 28.26 330.551Z" fill="#407BFF" stroke="#263238" stroke-miterlimit="10"/>
<path d="M97.8156 310.18C104.961 303.094 108.105 294.68 104.838 291.386C101.572 288.092 93.1311 291.165 85.986 298.251C78.841 305.336 75.6969 313.751 78.9635 317.045C82.2301 320.339 90.6705 317.265 97.8156 310.18Z" fill="#407BFF" stroke="#263238" stroke-miterlimit="10"/>
<path d="M48.6 290.731C55.51 300.731 57.6 311.321 53.2 314.341C48.8 317.361 39.69 311.661 32.78 301.641C25.87 291.621 23.78 281.051 28.18 278.041C32.58 275.031 41.69 280.711 48.6 290.731Z" fill="#407BFF" stroke="#263238" stroke-miterlimit="10"/>
<path d="M64.4 315.23L65.05 345.53" stroke="#263238" stroke-miterlimit="10" stroke-linecap="round"/>
<path d="M63.61 286.092L64.4 315.232" stroke="#263238" stroke-miterlimit="10" stroke-linecap="round"/>
<path d="M63.67 281.33L63.61 283.56" stroke="#263238" stroke-miterlimit="10" stroke-linecap="round"/>
<path d="M53.17 312.9C57.9837 322.861 60.8033 333.667 61.47 344.71" stroke="#263238" stroke-miterlimit="10" stroke-linecap="round"/>
<path d="M38.73 290.82C44.5006 297.508 49.3565 304.933 53.17 312.9" stroke="#263238" stroke-miterlimit="10" stroke-linecap="round"/>
<path d="M34.19 286C34.19 286 35.06 286.79 36.49 288.32" stroke="#263238" stroke-miterlimit="10" stroke-linecap="round"/>
<path d="M79.5 316C73.6077 324.253 69.0114 333.358 65.87 343" stroke="#263238" stroke-miterlimit="10" stroke-linecap="round"/>
<path d="M89.17 304.91C85.6073 308.297 82.3698 312.01 79.5 316" stroke="#263238" stroke-miterlimit="10" stroke-linecap="round"/>
<path d="M99.49 297C96.8631 298.477 94.3966 300.223 92.13 302.21" stroke="#263238" stroke-miterlimit="10" stroke-linecap="round"/>
<path d="M79.15 291.541C74.49 306.191 68.24 327.841 65.32 346.641" stroke="#263238" stroke-miterlimit="10" stroke-linecap="round"/>
<path d="M82 282.852C81.17 285.322 80.21 288.262 79.17 291.542" stroke="#263238" stroke-miterlimit="10" stroke-linecap="round"/>
<path d="M84.89 274.441C84.89 274.441 84.07 276.691 82.76 280.531" stroke="#263238" stroke-miterlimit="10" stroke-linecap="round"/>
<path d="M44.46 324.4C47.7878 325.569 50.8031 327.486 53.2736 330.003C55.7441 332.52 57.604 335.571 58.71 338.92" stroke="#263238" stroke-miterlimit="10" stroke-linecap="round"/>
<path d="M33.71 322.221C37.3824 322.404 41.0062 323.139 44.46 324.401" stroke="#263238" stroke-miterlimit="10" stroke-linecap="round"/>
<path d="M26.75 322.392C26.75 322.392 27.75 322.242 29.49 322.172" stroke="#263238" stroke-miterlimit="10" stroke-linecap="round"/>
<path d="M101.46 330.551C110.01 329.101 116.46 324.911 115.81 321.181C115.16 317.451 107.73 315.621 99.18 317.071C90.63 318.521 84.18 322.711 84.83 326.431C85.48 330.151 92.91 332.001 101.46 330.551Z" fill="#407BFF" stroke="#263238" stroke-miterlimit="10"/>
<path d="M85.44 324.33C82.0714 325.484 79.0152 327.402 76.5103 329.933C74.0054 332.464 72.1195 335.54 71 338.92" stroke="#263238" stroke-miterlimit="10" stroke-linecap="round"/>
<path d="M96.9 322.172C92.9909 322.292 89.1245 323.02 85.44 324.332" stroke="#263238" stroke-miterlimit="10" stroke-linecap="round"/>
<path d="M103 322.391C103 322.391 102.31 322.291 101.14 322.221" stroke="#263238" stroke-miterlimit="10" stroke-linecap="round"/>
<path d="M85.32 364.671C87.916 359.253 89.2819 353.328 89.32 347.321C89.3242 343.728 88.7882 340.154 87.73 336.721H42.94C41.8818 340.154 41.3458 343.728 41.35 347.321C41.3881 353.328 42.754 359.253 45.35 364.671H85.32Z" fill="#263238"/>
<path d="M41.79 341.682C41.66 342.492 41.57 343.322 41.49 344.162H89.15C89.08 343.322 88.98 342.492 88.85 341.682H41.79Z" fill="#7A7A7A"/>
<path d="M88.65 354.351C88.8 353.531 88.93 352.701 89.02 351.871H41.62C41.72 352.701 41.85 353.531 42 354.351H88.65Z" fill="#7A7A7A"/>
<path d="M47.14 347.461C47.14 347.843 47.0268 348.216 46.8147 348.534C46.6027 348.851 46.3012 349.098 45.9486 349.244C45.5959 349.39 45.2079 349.429 44.8335 349.354C44.4591 349.28 44.1152 349.096 43.8453 348.826C43.5754 348.556 43.3916 348.212 43.3171 347.838C43.2426 347.463 43.2808 347.075 43.4269 346.723C43.573 346.37 43.8204 346.069 44.1377 345.857C44.4551 345.644 44.8283 345.531 45.21 345.531C45.7219 345.531 46.2128 345.735 46.5747 346.097C46.9367 346.458 47.14 346.949 47.14 347.461Z" fill="#8C8C8C"/>
<path d="M56.78 347.461C56.78 347.843 56.6668 348.216 56.4547 348.534C56.2426 348.851 55.9412 349.098 55.5886 349.244C55.2359 349.39 54.8478 349.429 54.4735 349.354C54.0991 349.28 53.7552 349.096 53.4853 348.826C53.2154 348.556 53.0315 348.212 52.9571 347.838C52.8826 347.463 52.9208 347.075 53.0669 346.723C53.213 346.37 53.4603 346.069 53.7777 345.857C54.0951 345.644 54.4683 345.531 54.85 345.531C55.1038 345.53 55.3554 345.579 55.5901 345.676C55.8249 345.772 56.0382 345.914 56.2177 346.094C56.3971 346.273 56.5392 346.486 56.6358 346.721C56.7323 346.956 56.7813 347.207 56.78 347.461Z" fill="#8C8C8C"/>
<path d="M66.43 347.461C66.43 347.843 66.3168 348.216 66.1047 348.534C65.8927 348.851 65.5912 349.098 65.2386 349.244C64.8859 349.39 64.4979 349.429 64.1235 349.354C63.7491 349.28 63.4052 349.096 63.1353 348.826C62.8654 348.556 62.6816 348.212 62.6071 347.838C62.5326 347.463 62.5708 347.075 62.7169 346.723C62.863 346.37 63.1104 346.069 63.4278 345.857C63.7451 345.644 64.1183 345.531 64.5 345.531C65.0119 345.531 65.5028 345.735 65.8647 346.097C66.2267 346.458 66.43 346.949 66.43 347.461Z" fill="#8C8C8C"/>
<path d="M76.07 347.461C76.07 347.843 75.9568 348.216 75.7447 348.534C75.5327 348.851 75.2312 349.098 74.8786 349.244C74.5259 349.39 74.1378 349.429 73.7635 349.354C73.3891 349.28 73.0452 349.096 72.7753 348.826C72.5054 348.556 72.3215 348.212 72.2471 347.838C72.1726 347.463 72.2108 347.075 72.3569 346.723C72.503 346.37 72.7504 346.069 73.0677 345.857C73.3851 345.644 73.7583 345.531 74.14 345.531C74.3938 345.53 74.6454 345.579 74.8801 345.676C75.1149 345.772 75.3282 345.914 75.5077 346.094C75.6871 346.273 75.8293 346.486 75.9258 346.721C76.0223 346.956 76.0713 347.207 76.07 347.461Z" fill="#8C8C8C"/>
<path d="M85.71 347.461C85.71 347.843 85.5968 348.216 85.3847 348.534C85.1726 348.851 84.8712 349.098 84.5186 349.244C84.1659 349.39 83.7778 349.429 83.4034 349.354C83.0291 349.28 82.6852 349.096 82.4153 348.826C82.1453 348.556 81.9615 348.212 81.8871 347.838C81.8126 347.463 81.8508 347.075 81.9969 346.723C82.143 346.37 82.3903 346.069 82.7077 345.857C83.0251 345.644 83.3983 345.531 83.78 345.531C84.0338 345.53 84.2854 345.579 84.5201 345.676C84.7549 345.772 84.9682 345.914 85.1477 346.094C85.3271 346.273 85.4692 346.486 85.5658 346.721C85.6623 346.956 85.7113 347.207 85.71 347.461Z" fill="#8C8C8C"/>
<path d="M124.02 364.9H33.67V441.57H124.02V364.9Z" fill="#CFCFCF" stroke="#263238" stroke-miterlimit="10"/>
<path d="M124.02 364.9H77.6V441.57H124.02V364.9Z" fill="#CFCFCF" stroke="#263238" stroke-miterlimit="10"/>
<path d="M388.73 124.131H337.33V196.501H388.73V124.131Z" fill="white" stroke="#263238" stroke-miterlimit="10"/>
<path d="M385.94 128.061H340.13V192.571H385.94V128.061Z" fill="white" stroke="#263238" stroke-miterlimit="10"/>
<path d="M372.93 146.391H353.14V174.251H372.93V146.391Z" fill="#CFCFCF" stroke="#263238" stroke-miterlimit="10"/>
<path d="M341.72 211.75L333.91 206.54L336.84 168.54C337.516 167.217 337.956 165.785 338.14 164.31C338.03 162.565 337.812 160.829 337.49 159.11C337.49 159.11 339.44 155.21 338.49 154.23C337.54 153.25 336.49 154.88 336.49 154.88L336.64 151.99C336.64 151.99 331.29 156.83 331.29 158.78C331.29 160.73 333.57 171.14 333.57 171.14C333.57 171.14 324.79 199.14 323.16 204.63C322.246 207.604 321.593 210.653 321.21 213.74L344 225.08L341.72 211.75Z" fill="white" stroke="#263238" stroke-miterlimit="10"/>
<path d="M336.51 154.842C336.51 154.842 334.14 159.192 334.14 160.702V164.242" fill="white"/>
<path d="M336.51 154.842C336.51 154.842 334.14 159.192 334.14 160.702V164.242" stroke="#263238" stroke-miterlimit="10"/>
<path d="M333.91 206.541C333.91 206.541 329.77 203.541 327.33 205.971Z" fill="white"/>
<path d="M333.91 206.541C333.91 206.541 329.77 203.541 327.33 205.971" stroke="#263238" stroke-miterlimit="10"/>
<path d="M391.47 206.71L395.61 198.9C395.61 198.9 394.15 190.12 393.42 184.02C392.69 177.92 391 165.9 391 165.9C391 165.9 389.29 161.83 389.29 159.64C389.16 157.695 388.665 155.792 387.83 154.03C387.34 152.81 385.39 150.37 386.83 149.39L388.29 148.39L389 147L394.61 151.64L395.1 152.86C395.58 154.08 395.58 165.54 395.58 165.54C395.58 165.54 403.63 190.9 405.34 194.54C407.05 198.18 408.02 200.88 407.53 203.81C407.04 206.74 404.85 212.81 399.73 216C394.61 219.19 391.47 206.71 391.47 206.71Z" fill="white" stroke="#263238" stroke-miterlimit="10"/>
<path d="M396.59 198.661C396.59 198.661 398.59 195.241 403.66 197.661Z" fill="white"/>
<path d="M396.59 198.661C396.59 198.661 398.59 195.241 403.66 197.661" stroke="#263238" stroke-miterlimit="10"/>
<path d="M386.84 149.391C386.84 149.391 390.01 154.031 390.74 154.521C391.398 155.085 391.97 155.742 392.44 156.471" fill="white"/>
<path d="M386.84 149.391C386.84 149.391 390.01 154.031 390.74 154.521C391.398 155.085 391.97 155.742 392.44 156.471" stroke="#263238" stroke-miterlimit="10"/>
<path d="M359.6 184.432C359.6 184.432 355.05 182.812 355.7 188.332C356.35 193.852 361.23 193.542 361.23 193.542C361.23 193.542 362.85 200.692 364.15 201.342L365.45 201.992L364.15 209.792C362.127 210.456 360.067 211 357.98 211.422C356.98 211.422 349.52 211.102 348.22 211.102C346.92 211.102 340.09 210.102 340.09 210.102C338.688 212.327 338.114 214.976 338.47 217.582C339.12 221.812 340.09 224.082 340.74 225.062C341.183 225.765 341.52 226.53 341.74 227.332L346.94 229.332L352.79 267.712H391.49L396.04 222.512L402.54 217.302C402.29 213.984 401.635 210.71 400.59 207.552C398.97 203.002 392.14 203.972 392.14 203.972L389.54 206.252C389.54 206.252 384.34 207.552 383.36 207.872L379.46 209.172L378.81 200.722L367.75 182.842L359.6 184.432Z" fill="white" stroke="#263238" stroke-miterlimit="10"/>
<path d="M388.22 179.231C388.22 179.231 385.29 167.521 377.49 163.941C369.69 160.361 361.23 165.571 358.3 172.401C355.37 179.231 360.25 188.331 360.25 188.331C360.25 188.331 364.8 201.671 369.03 203.621C373.26 205.571 380.41 202.971 384.32 197.761C388.23 192.551 388.54 184.431 388.22 179.231Z" fill="#263238" stroke="#263238" stroke-miterlimit="10"/>
<path d="M390.98 187.36C397.353 187.36 402.52 182.556 402.52 176.63C402.52 170.704 397.353 165.9 390.98 165.9C384.607 165.9 379.44 170.704 379.44 176.63C379.44 182.556 384.607 187.36 390.98 187.36Z" fill="#263238" stroke="#263238" stroke-miterlimit="10"/>
<path d="M396 222.48L402.5 217.27C402.25 213.953 401.595 210.678 400.55 207.52C398.93 202.97 392.1 203.94 392.1 203.94L389.5 206.22C389.5 206.22 384.3 207.52 383.32 207.84L379.9 209C378.7 210.53 375.77 213.72 371.71 214.28C367.2 214.89 363.71 211.37 362.71 210.23C361.155 210.747 359.564 211.148 357.95 211.43C356.95 211.43 349.49 211.11 348.19 211.11C346.89 211.11 340.06 210.11 340.06 210.11C338.658 212.336 338.084 214.984 338.44 217.59C339.09 221.82 340.06 224.09 340.71 225.07C341.153 225.774 341.49 226.539 341.71 227.34L346.91 229.34L352.76 267.72H391.46L396 222.48Z" fill="#263238" stroke="#263238" stroke-miterlimit="10"/>
<path d="M344 322C344 322 347.91 360 347.91 370.78C347.91 381.56 348.91 399.39 349.53 407.85C350.15 416.31 352.45 429 352.45 429C352.45 429 350.82 428.35 350.17 431.28C349.52 434.21 349.17 434.85 346.27 435.83C343.37 436.81 341.07 438.76 342.37 440.38C343.67 442 350.82 442.66 356.02 443.96C361.22 445.26 361.88 443.63 361.88 440.06V429.61C361.88 429.61 365.45 374.33 365.45 372.38C365.45 370.43 366.76 323.93 366.76 323.93L344 322Z" fill="white" stroke="#263238" stroke-miterlimit="10"/>
<path d="M353.64 325.85L366.44 335.36C366.62 328.76 366.76 323.93 366.76 323.93L352 322.66L353.64 325.85Z" fill="#263238" stroke="#263238" stroke-miterlimit="10"/>
<path d="M356 443.922C361.21 445.222 361.86 443.592 361.86 440.022V429.612C357.63 427.342 355.68 434.162 354.38 433.512C353.08 432.862 352.43 428.962 352.43 428.962C352.43 428.962 350.8 428.312 350.15 431.242C349.5 434.172 349.15 434.812 346.25 435.792C343.35 436.772 341.05 438.722 342.35 440.342C343.65 441.962 350.82 442.622 356 443.922Z" fill="white" stroke="#263238" stroke-miterlimit="10"/>
<path d="M375.86 323.002C375.86 323.002 379.76 354.872 380.09 361.382C380.42 367.892 400.25 427.002 400.25 427.002C400.25 427.002 402.2 436.762 403.18 439.682C404.16 442.602 404.8 443.262 406.75 443.262C408.7 443.262 414.88 443.262 415.53 440.662C416.18 438.062 412.28 430.252 411.3 427.662C410.32 425.072 408.7 422.462 408.7 421.162C408.7 419.862 403.83 388.312 401.55 377.582C399.27 366.852 396 361.332 396 361.332L402.5 317.102L375.86 323.002Z" fill="white" stroke="#263238" stroke-miterlimit="10"/>
<path d="M401.66 323.002L390.09 319.842L375.86 323.002C375.86 323.002 376.51 328.302 377.3 335.002L401.45 324.452L401.66 323.002Z" fill="#263238" stroke="#263238" stroke-miterlimit="10"/>
<path d="M406.75 443.271C408.7 443.271 414.88 443.271 415.53 440.671C416.18 438.071 412.28 430.261 411.3 427.671C410.48 425.471 409.2 423.291 408.82 421.871C400.53 418.951 400.25 427.021 400.25 427.021C400.25 427.021 402.2 436.781 403.18 439.701C404.16 442.621 404.8 443.271 406.75 443.271Z" fill="white" stroke="#263238" stroke-miterlimit="10"/>
<path d="M409 435.462C404.84 435.802 403.49 437.842 403.16 439.742C404.16 442.622 404.78 443.272 406.72 443.272C408.66 443.272 414.85 443.272 415.5 440.672C415.623 439.426 415.451 438.169 415 437.002C413.279 435.722 411.125 435.168 409 435.462Z" fill="white" stroke="#263238" stroke-miterlimit="10"/>
<path d="M359.6 211.101C359.6 211.101 362.2 241.341 360.9 245.561C359.6 249.781 347.25 265.071 347.25 265.071L347.57 275.151C347.57 275.151 343.02 280.681 341.39 290.441C339.76 300.201 337.82 323.281 337.82 323.281C337.82 323.281 350.17 325.881 357.65 327.181C365.13 328.481 368.71 327.511 368.71 327.511L372 316.781L373.62 327.511C379.219 328.339 384.87 328.773 390.53 328.811C399.31 328.811 405.82 321.651 405.82 321.651C405.82 321.651 402.56 300.521 402.56 298.241C402.56 295.961 395.09 271.241 395.09 271.241L395.41 258.891C395.41 258.891 393.13 255.961 389.23 251.731C385.33 247.501 383 240.691 383 240.691L386.26 207.521L383.33 207.841L379.43 240.041L365.12 239.711L362.73 210.221L359.6 211.101Z" fill="#407BFF" stroke="#263238" stroke-miterlimit="10"/>
<path d="M360.77 278.481L390.21 273.711" stroke="#263238" stroke-miterlimit="10"/>
<path d="M358.38 274.5L367.4 272.91" stroke="#263238" stroke-miterlimit="10"/>
<path d="M371.96 316.781V309.621" stroke="#263238" stroke-miterlimit="10"/>
<path d="M365.78 308.971H377.81" stroke="#263238" stroke-miterlimit="10"/>
<path d="M108.52 431.24C108.52 431.24 99.09 444.73 99.09 446.68C99.0935 447.244 99.2557 447.795 99.5582 448.271C99.8606 448.747 100.291 449.128 100.8 449.37H120.8C121.887 448.165 122.495 446.603 122.51 444.98C122.51 442.29 122.18 431.89 122.18 431.89L108.52 431.24Z" fill="white" stroke="#263238" stroke-miterlimit="10"/>
<path d="M100.8 449.37H120.8C121.49 448.6 121.99 447.678 122.26 446.68H99.09C99.0935 447.243 99.2557 447.795 99.5582 448.271C99.8606 448.746 100.291 449.127 100.8 449.37Z" fill="white" stroke="#263238" stroke-miterlimit="10"/>
<path d="M108.52 288.16V431.24L122.18 431.89L136.81 321L139.42 435C139.42 435 142.99 431.75 146.89 431.1C149.691 430.68 152.518 430.459 155.35 430.44L155.67 424.59L155.02 417.76L162.18 292.41L108.52 288.16Z" fill="#263238" stroke="#263238" stroke-miterlimit="10"/>
<path d="M121 180L121.17 198.86C121.17 198.86 102 210 100.76 212.26C99.52 214.52 107.39 290.36 107.39 292.55C107.39 294.74 111 295 115 295.72C119 296.44 138.41 297.92 145.48 297.67C152.55 297.42 160.36 295.72 161.82 294.75C163.28 293.78 164.75 220.12 163.53 215.75C162.31 211.38 138.41 200.38 138.41 200.38L138.9 193.56L121 180Z" fill="white" stroke="#263238" stroke-miterlimit="10"/>
<path d="M115.19 233.781L121.53 222.561" stroke="#263238" stroke-miterlimit="10"/>
<path d="M112.75 237.43L122.99 228.17" stroke="#263238" stroke-miterlimit="10"/>
<path d="M138.36 200.36L138.85 193.54L121 180L121.17 198.86C121.17 198.86 119.7 199.71 117.56 200.98C120.56 206.06 126.76 214.67 133.7 213.28C138.95 212.28 143.01 207.77 145.63 203.89C141.55 201.83 138.36 200.36 138.36 200.36Z" fill="white" stroke="#263238" stroke-miterlimit="10"/>
<path d="M121.17 195.44L138.85 193.54L121.03 180.01L121.17 195.44Z" fill="#263238" stroke="#263238" stroke-miterlimit="10"/>
<path d="M210.78 243.83H138.93V304.8H210.78V243.83Z" fill="#CFCFCF" stroke="#263238" stroke-miterlimit="10"/>
<path d="M210.77 243.83H173.86V304.8H210.77V243.83Z" fill="#CFCFCF" stroke="#263238" stroke-miterlimit="10"/>
<path d="M203.19 204.939H144.55V243.499H203.19V204.939Z" fill="#CFCFCF" stroke="#263238" stroke-miterlimit="10"/>
<path d="M203.19 204.939H173.06V243.499H203.19V204.939Z" fill="#CFCFCF" stroke="#263238" stroke-miterlimit="10"/>
<path d="M105.92 209.139C104.142 209.164 102.406 209.679 100.901 210.626C99.3962 211.573 98.1815 212.917 97.39 214.509C94.46 220.119 95.19 227.919 96.39 232.069C97.59 236.219 106.15 255.239 108.83 259.869C111.51 264.499 119.07 273.529 119.07 273.529C119.07 273.529 140.53 302.309 141.51 303.769C142.49 305.229 144.19 306.449 145.41 306.449H148.09C148.361 306.986 148.782 307.433 149.302 307.737C149.822 308.04 150.419 308.187 151.02 308.159C153.02 307.919 154.68 305.719 154.68 305.719C154.68 305.719 152.24 303.279 152 301.569C151.963 301.344 151.972 301.115 152.026 300.894C152.08 300.673 152.179 300.465 152.315 300.283C152.451 300.101 152.623 299.948 152.82 299.834C153.016 299.72 153.234 299.647 153.46 299.619C154.579 299.903 155.751 299.903 156.87 299.619C158.58 299.139 160.78 297.669 158.34 296.939C156.92 296.501 155.431 296.335 153.95 296.449C153.95 296.449 151.02 294.499 148.58 294.499C146.66 294.375 144.768 293.963 142.97 293.279C142.97 293.279 130.29 264.749 127.61 261.329C125.874 259.019 124.476 256.473 123.46 253.769L113.71 218.409" fill="white"/>
<path d="M105.92 209.139C104.142 209.164 102.406 209.679 100.901 210.626C99.3962 211.573 98.1815 212.917 97.39 214.509C94.46 220.119 95.19 227.919 96.39 232.069C97.59 236.219 106.15 255.239 108.83 259.869C111.51 264.499 119.07 273.529 119.07 273.529C119.07 273.529 140.53 302.309 141.51 303.769C142.49 305.229 144.19 306.449 145.41 306.449H148.09C148.361 306.986 148.782 307.433 149.302 307.737C149.822 308.04 150.419 308.187 151.02 308.159C153.02 307.919 154.68 305.719 154.68 305.719C154.68 305.719 152.24 303.279 152 301.569C151.963 301.344 151.972 301.115 152.026 300.894C152.08 300.673 152.179 300.465 152.315 300.283C152.451 300.101 152.623 299.948 152.82 299.834C153.016 299.72 153.234 299.647 153.46 299.619C154.579 299.903 155.751 299.903 156.87 299.619C158.58 299.139 160.78 297.669 158.34 296.939C156.92 296.501 155.431 296.335 153.95 296.449C153.95 296.449 151.02 294.499 148.58 294.499C146.66 294.375 144.768 293.963 142.97 293.279C142.97 293.279 130.29 264.749 127.61 261.329C125.874 259.019 124.476 256.473 123.46 253.769L113.71 218.409" stroke="#263238" stroke-miterlimit="10"/>
<path d="M104.2 209.32C102.742 209.604 101.37 210.219 100.189 211.12C99.0075 212.02 98.0498 213.18 97.39 214.51C94.46 220.12 95.19 227.92 96.39 232.07C96.58 232.72 96.95 233.73 97.45 235C100.66 232.28 106.89 229.19 117.45 231.93L114.14 219.93" stroke="#263238" stroke-miterlimit="10"/>
<path d="M155.35 430.42C155.35 430.42 162.26 436.93 166.41 439.61C170.56 442.29 175.18 444.73 175.18 445.46V449.61H138.85L139.42 434.98C139.42 434.98 145.76 426.12 155.35 430.42Z" fill="white" stroke="#263238" stroke-miterlimit="10"/>
<path d="M175.18 446.68H139L138.89 449.61H175.22L175.18 446.68Z" fill="white" stroke="#263238" stroke-miterlimit="10"/>
<path d="M145.21 159.119C145.21 159.119 147.75 169.849 147.75 170.979C147.75 172.109 146.06 174.369 146.06 174.369C146.06 174.369 148.88 181.149 148.88 181.989C148.88 182.829 146.06 185.099 146.06 185.099C146.06 185.099 144.06 196.099 142.95 196.959C141.84 197.819 130.52 192.729 127.95 191.599C125.38 190.469 121.45 182.839 121.45 182.839C119.296 181.581 117.461 179.842 116.09 177.759C113.55 174.089 115.81 170.979 118.35 168.999C120.89 167.019 123.71 157.699 123.71 157.699C123.71 157.699 123.43 154.029 124.28 153.749C125.13 153.469 135.01 153.469 136.99 153.469C138.97 153.469 145.21 159.119 145.21 159.119Z" fill="white" stroke="#263238" stroke-miterlimit="10"/>
<path d="M138.18 171.269C138.18 171.269 140.06 169.619 143.88 170.269" stroke="#263238" stroke-miterlimit="10"/>
<path d="M142.17 174.719C142.17 175.719 141.9 176.489 141.56 176.489C141.22 176.489 140.94 175.699 140.94 174.719C140.94 173.739 141.22 172.959 141.56 172.959C141.9 172.959 142.17 173.749 142.17 174.719Z" fill="#263238"/>
<path d="M143.58 188.12C143.58 188.12 137.94 188.12 136.01 184.77" stroke="#263238" stroke-miterlimit="10"/>
<path d="M128.83 161.94C128.83 161.94 131.37 163.35 129.96 165.05C128.55 166.75 124.87 167.31 124.87 168.44V174.65C124.87 175.78 125.72 177.19 124.03 177.19C122.34 177.19 121.48 174.37 121.48 174.37C121.049 173.791 120.498 173.313 119.864 172.968C119.231 172.622 118.53 172.418 117.81 172.37H115.55C115.55 172.37 112.73 159.94 113.86 156.55C114.99 153.16 123.18 146.1 133.06 146.1C142.94 146.1 148.6 150.1 148.6 154.29C148.6 158.48 144.65 160.51 144.65 160.51H128L128.83 161.94Z" fill="#263238" stroke="#263238" stroke-miterlimit="10"/>
</svg>
