<svg width="500" height="500" viewBox="0 0 500 500" fill="none" xmlns="http://www.w3.org/2000/svg">
<path d="M156.19 55.9198C156.19 55.9198 80.42 94.5198 42.63 154C4.84 213.48 7.83001 290 53.75 346.8C99.67 403.6 187.44 396.14 260.93 432.12C334.42 468.1 415.5 460.69 450.25 384.46C485 308.23 432.6 279.74 423.6 191.52C414.6 103.3 335.07 -25.8802 156.19 55.9198Z" fill="#407BFF"/>
<path opacity="0.7" d="M156.19 55.9198C156.19 55.9198 80.42 94.5198 42.63 154C4.84 213.48 7.83001 290 53.75 346.8C99.67 403.6 187.44 396.14 260.93 432.12C334.42 468.1 415.5 460.69 450.25 384.46C485 308.23 432.6 279.74 423.6 191.52C414.6 103.3 335.07 -25.8802 156.19 55.9198Z" fill="white"/>
<path d="M70.74 70.0505C70.74 71.2847 70.374 72.4911 69.6884 73.5173C69.0027 74.5435 68.0282 75.3433 66.888 75.8156C65.7477 76.2878 64.4931 76.4114 63.2826 76.1706C62.0722 75.9299 60.9603 75.3356 60.0877 74.4629C59.215 73.5902 58.6207 72.4784 58.3799 71.2679C58.1391 70.0575 58.2627 68.8028 58.735 67.6626C59.2073 66.5224 60.0071 65.5478 61.0333 64.8622C62.0594 64.1765 63.2659 63.8105 64.5 63.8105C66.155 63.8105 67.7421 64.468 68.9124 65.6382C70.0826 66.8084 70.74 68.3956 70.74 70.0505Z" stroke="#808080" stroke-miterlimit="10"/>
<path d="M98 70H31L51 56H78L98 70Z" fill="#263238" stroke="#263238" stroke-linecap="round" stroke-linejoin="round"/>
<path d="M69.82 47.6797H59.19V61.6797H69.82V47.6797Z" fill="#263238" stroke="#263238" stroke-linecap="round" stroke-linejoin="round"/>
<path d="M64.27 48.5499V16.6699" stroke="#263238" stroke-linecap="round" stroke-linejoin="round"/>
<path d="M312.98 57.9205V42.3105H327.54V155.431" stroke="#808080" stroke-miterlimit="10"/>
<path d="M312.98 296.49V62.1602" stroke="#808080" stroke-miterlimit="10"/>
<path d="M327.54 159.67V419.83H312.98V302.27" stroke="#808080" stroke-miterlimit="10"/>
<path d="M237 49.1605V42.3105H251.56V47.9105" stroke="#808080" stroke-miterlimit="10"/>
<path d="M237 170.84V166.25" stroke="#808080" stroke-miterlimit="10"/>
<path d="M251.56 406.341V419.831H237V356.221" stroke="#808080" stroke-miterlimit="10"/>
<path d="M251.56 355.971V401.331" stroke="#808080" stroke-miterlimit="10"/>
<path d="M89.1201 393.231V356.221" stroke="#808080" stroke-miterlimit="10"/>
<path d="M103.68 355.971V419.831H89.1201V399.401" stroke="#808080" stroke-miterlimit="10"/>
<path d="M251.56 165V170.59" stroke="#808080" stroke-miterlimit="10"/>
<path d="M194.36 165.67H313.03V149.67H43.03" stroke="#808080" stroke-miterlimit="10"/>
<path d="M100.7 165.67H190.5" stroke="#808080" stroke-miterlimit="10"/>
<path d="M88.3701 165.67H96.8501" stroke="#808080" stroke-miterlimit="10"/>
<path d="M43.03 165.67H83.74" stroke="#808080" stroke-miterlimit="10"/>
<path d="M304.33 317.111H274.24V340.401H304.33V317.111Z" stroke="#808080" stroke-miterlimit="10"/>
<path d="M231.04 317.111H200.95V340.401H231.04V317.111Z" stroke="#808080" stroke-miterlimit="10"/>
<path d="M157.74 317.111H70.71V340.401H157.74V317.111Z" stroke="#808080" stroke-miterlimit="10"/>
<path d="M157.74 317.111H132.36V340.401H157.74V317.111Z" stroke="#808080" stroke-miterlimit="10"/>
<path d="M306.85 312.43H57.02V317.09H306.85V312.43Z" stroke="#808080" stroke-miterlimit="10"/>
<path d="M306.84 312.43H121.74V317.09H306.84V312.43Z" stroke="#808080" stroke-miterlimit="10"/>
<path d="M149.15 309H60.33V312.56H149.15V309Z" stroke="#808080" stroke-miterlimit="10"/>
<path d="M186.74 309H168.53V312.34H186.74V309Z" stroke="#808080" stroke-miterlimit="10"/>
<path d="M224.33 309H206.12V312.34H224.33V309Z" stroke="#808080" stroke-miterlimit="10"/>
<path d="M261.92 309H243.71V312.34H261.92V309Z" stroke="#808080" stroke-miterlimit="10"/>
<path d="M299.51 309H281.3V312.34H299.51V309Z" stroke="#808080" stroke-miterlimit="10"/>
<path d="M157.74 340.4H200.95" stroke="#808080" stroke-miterlimit="10"/>
<path d="M231.03 340.4H274.24" stroke="#808080" stroke-miterlimit="10"/>
<path d="M132.05 312.461V309.121" stroke="#808080" stroke-miterlimit="10"/>
<path d="M149.15 309H168.53" stroke="#808080" stroke-miterlimit="10"/>
<path d="M186.74 309H206.12" stroke="#808080" stroke-miterlimit="10"/>
<path d="M224.33 309H243.71" stroke="#808080" stroke-miterlimit="10"/>
<path d="M261.92 309H281.3" stroke="#808080" stroke-miterlimit="10"/>
<path d="M62.16 356.361H313.03V340.361H43.03" stroke="#808080" stroke-miterlimit="10"/>
<path d="M43.03 356.361H57.54" stroke="#808080" stroke-miterlimit="10"/>
<path d="M300.22 170.711H217.18V239.701H300.22V170.711Z" stroke="#808080" stroke-miterlimit="10"/>
<path d="M300.22 170.711H233.45V239.701H300.22V170.711Z" stroke="#808080" stroke-miterlimit="10"/>
<path d="M274.66 176.2H260.66C260.013 176.2 259.392 175.943 258.935 175.486C258.477 175.028 258.22 174.407 258.22 173.76C258.22 173.113 258.477 172.493 258.935 172.035C259.392 171.577 260.013 171.32 260.66 171.32H274.66C275.307 171.32 275.928 171.577 276.385 172.035C276.843 172.493 277.1 173.113 277.1 173.76C277.1 174.407 276.843 175.028 276.385 175.486C275.928 175.943 275.307 176.2 274.66 176.2Z" stroke="#808080" stroke-miterlimit="10"/>
<path d="M300.22 239.68H217.18V308.67H300.22V239.68Z" stroke="#808080" stroke-miterlimit="10"/>
<path d="M300.22 239.68H233.45V308.67H300.22V239.68Z" stroke="#808080" stroke-miterlimit="10"/>
<path d="M274.66 240.291H260.66C259.312 240.291 258.22 241.381 258.22 242.726C258.22 244.071 259.312 245.161 260.66 245.161H274.66C276.008 245.161 277.1 244.071 277.1 242.726C277.1 241.381 276.008 240.291 274.66 240.291Z" stroke="#808080" stroke-miterlimit="10"/>
<path d="M204.08 239.68H121.04V308.67H204.08V239.68Z" stroke="#808080" stroke-miterlimit="10"/>
<path d="M204.08 239.68H137.31V308.67H204.08V239.68Z" stroke="#808080" stroke-miterlimit="10"/>
<path d="M178.53 240.291H164.53C163.182 240.291 162.09 241.381 162.09 242.726C162.09 244.071 163.182 245.161 164.53 245.161H178.53C179.878 245.161 180.97 244.071 180.97 242.726C180.97 241.381 179.878 240.291 178.53 240.291Z" stroke="#808080" stroke-miterlimit="10"/>
<path d="M304.33 126.201H274.24V149.491H304.33V126.201Z" stroke="#808080" stroke-miterlimit="10"/>
<path d="M231.04 126.201H200.95V149.491H231.04V126.201Z" stroke="#808080" stroke-miterlimit="10"/>
<path d="M157.74 126.201H70.71V149.491H157.74V126.201Z" stroke="#808080" stroke-miterlimit="10"/>
<path d="M157.74 126.201H132.36V149.491H157.74V126.201Z" stroke="#808080" stroke-miterlimit="10"/>
<path d="M306.85 121.531H57.02V126.191H306.85V121.531Z" stroke="#808080" stroke-miterlimit="10"/>
<path d="M306.84 121.531H121.74V126.191H306.84V121.531Z" stroke="#808080" stroke-miterlimit="10"/>
<path d="M84.48 118.09H60.33V121.65H149.15V118.09H88.53" stroke="#808080" stroke-miterlimit="10"/>
<path d="M186.74 118.1H168.53V121.44H186.74V118.1Z" stroke="#808080" stroke-miterlimit="10"/>
<path d="M224.33 118.1H206.12V121.44H224.33V118.1Z" stroke="#808080" stroke-miterlimit="10"/>
<path d="M261.92 118.1H243.71V121.44H261.92V118.1Z" stroke="#808080" stroke-miterlimit="10"/>
<path d="M299.51 118.1H281.3V121.44H299.51V118.1Z" stroke="#808080" stroke-miterlimit="10"/>
<path d="M157.74 149.5H200.95" stroke="#808080" stroke-miterlimit="10"/>
<path d="M231.03 149.5H274.24" stroke="#808080" stroke-miterlimit="10"/>
<path d="M132.05 121.551V118.221" stroke="#808080" stroke-miterlimit="10"/>
<path d="M149.15 118.1H168.53" stroke="#808080" stroke-miterlimit="10"/>
<path d="M186.74 118.1H206.12" stroke="#808080" stroke-miterlimit="10"/>
<path d="M224.33 118.1H243.71" stroke="#808080" stroke-miterlimit="10"/>
<path d="M261.92 118.1H281.3" stroke="#808080" stroke-miterlimit="10"/>
<path d="M300.22 48.7812H217.18V117.771H300.22V48.7812Z" stroke="#808080" stroke-miterlimit="10"/>
<path d="M233.45 94.6012V48.7812H300.21V117.771H233.45V100.371" stroke="#808080" stroke-miterlimit="10"/>
<path d="M274.66 54.2606H260.66C260.013 54.2606 259.392 54.0036 258.935 53.546C258.477 53.0884 258.22 52.4678 258.22 51.8206C258.22 51.5007 258.283 51.1839 258.406 50.8884C258.529 50.5929 258.709 50.3246 258.935 50.0988C259.162 49.8731 259.431 49.6943 259.727 49.5727C260.023 49.4512 260.34 49.3893 260.66 49.3906H274.66C274.98 49.3893 275.297 49.4512 275.593 49.5727C275.889 49.6943 276.158 49.8731 276.385 50.0988C276.611 50.3246 276.791 50.5929 276.914 50.8884C277.037 51.1839 277.1 51.5007 277.1 51.8206C277.1 52.4678 276.843 53.0884 276.385 53.546C275.928 54.0036 275.307 54.2606 274.66 54.2606Z" stroke="#808080" stroke-miterlimit="10"/>
<path d="M204.08 78.9912V117.771H121.04V48.7812H204.08V74.6613" stroke="#808080" stroke-miterlimit="10"/>
<path d="M204.08 78.9912V117.771H137.31V48.7812H204.08V71.7712" stroke="#808080" stroke-miterlimit="10"/>
<path d="M178.53 54.2608H164.53C164.21 54.2608 163.893 54.1976 163.598 54.0749C163.302 53.9521 163.034 53.7723 162.808 53.5455C162.582 53.3188 162.404 53.0498 162.282 52.7538C162.161 52.4578 162.099 52.1408 162.1 51.8208C162.1 51.1763 162.356 50.5583 162.812 50.1025C163.268 49.6468 163.886 49.3908 164.53 49.3908H178.53C178.852 49.3868 179.172 49.4467 179.471 49.5669C179.77 49.6871 180.042 49.8653 180.271 50.0913C180.501 50.3172 180.684 50.5863 180.809 50.8832C180.934 51.18 180.999 51.4987 181 51.8208C181 52.1438 180.936 52.4635 180.811 52.7615C180.687 53.0595 180.505 53.3299 180.275 53.5568C180.045 53.7838 179.773 53.9629 179.473 54.0838C179.174 54.2046 178.853 54.2648 178.53 54.2608Z" stroke="#808080" stroke-miterlimit="10"/>
<path d="M286.02 356.441L313.2 375.011" stroke="#808080" stroke-miterlimit="10"/>
<path d="M313.16 389.021L265.64 356.531" stroke="#808080" stroke-miterlimit="10"/>
<path d="M209.69 356.441L236.86 375.011" stroke="#808080" stroke-miterlimit="10"/>
<path d="M236.82 389.021L189.3 356.531" stroke="#808080" stroke-miterlimit="10"/>
<path d="M385.88 353.229H287.43V435.189H385.88V353.229Z" fill="#263238" stroke="#808080" stroke-miterlimit="10"/>
<path d="M357.93 353.229H287.43V435.189H357.93V353.229Z" fill="#D1D1D1" stroke="#808080" stroke-miterlimit="10"/>
<path d="M349.66 370.7L343.69 357.5L337.7 370.67L340.8 370.68V384.17L346.55 384.18L346.56 370.69L349.66 370.7Z" fill="#263238"/>
<path d="M341.3 386.939V393.679C341.3 394.299 341.49 394.519 341.8 394.529C342.11 394.539 342.3 394.299 342.3 393.679V386.999H343.22V393.639C343.22 395.039 342.73 395.839 341.78 395.829C340.83 395.819 340.34 395.029 340.34 393.639V386.989L341.3 386.939Z" fill="#263238"/>
<path d="M346.74 389.12V390.25C346.74 391.65 346.27 392.41 345.3 392.41H344.84V395.69H343.84V387H345.26C346.27 387 346.74 387.72 346.74 389.12ZM344.84 388.2V391.2H345.3C345.61 391.2 345.77 391 345.77 390.38V389C345.77 388.38 345.6 388.17 345.29 388.17L344.84 388.2Z" fill="#263238"/>
<path d="M328.68 353.229H316.68V368.669H328.68V353.229Z" fill="#F5F5F5" stroke="#808080" stroke-miterlimit="10"/>
<path d="M466.88 353.229H368.43V435.189H466.88V353.229Z" fill="#263238" stroke="#808080" stroke-miterlimit="10"/>
<path d="M438.93 353.229H368.43V435.189H438.93V353.229Z" fill="#D1D1D1" stroke="#808080" stroke-miterlimit="10"/>
<path d="M409.68 353.229H397.68V368.669H409.68V353.229Z" fill="#F5F5F5" stroke="#808080" stroke-miterlimit="10"/>
<path d="M461.89 271.689H363.44V353.649H461.89V271.689Z" fill="#263238" stroke="#808080" stroke-miterlimit="10"/>
<path d="M433.94 271.689H363.44V353.649H433.94V271.689Z" fill="#D1D1D1" stroke="#808080" stroke-miterlimit="10"/>
<path d="M428.66 290.2L422.69 277L416.7 290.17L419.8 290.18V303.67L425.55 303.68L425.56 290.19L428.66 290.2Z" fill="#263238"/>
<path d="M420.3 306.439V313.179C420.3 313.799 420.49 314.019 420.8 314.029C421.11 314.039 421.3 313.799 421.3 313.179V306.449H422.22V313.089C422.22 314.489 421.73 315.289 420.78 315.279C419.83 315.269 419.34 314.479 419.34 313.089V306.439H420.3Z" fill="#263238"/>
<path d="M425.74 308.619V309.749C425.74 311.149 425.27 311.909 424.3 311.909H423.84V315.189H422.84V306.459H424.26C425.27 306.459 425.74 307.219 425.74 308.619ZM423.84 307.699V310.699H424.3C424.61 310.699 424.77 310.499 424.77 309.879V308.569C424.77 307.949 424.6 307.739 424.29 307.739L423.84 307.699Z" fill="#263238"/>
<path d="M404.69 271.689H392.68V287.129H404.69V271.689Z" fill="#F5F5F5" stroke="#808080" stroke-miterlimit="10"/>
<path d="M461.89 188.689H363.44V270.649H461.89V188.689Z" fill="#263238" stroke="#808080" stroke-miterlimit="10"/>
<path d="M433.94 188.689H363.44V270.649H433.94V188.689Z" fill="#D1D1D1" stroke="#808080" stroke-miterlimit="10"/>
<path d="M398.547 231.738L373.734 247.17L382.248 260.858L407.06 245.426L398.547 231.738Z" fill="#F5F5F5" stroke="#808080" stroke-miterlimit="10"/>
<path d="M319.961 391.454L295.149 406.887L303.662 420.575L328.475 405.143L319.961 391.454Z" fill="#F5F5F5" stroke="#808080" stroke-miterlimit="10"/>
<path d="M404.69 188.689H392.68V204.129H404.69V188.689Z" fill="#F5F5F5" stroke="#808080" stroke-miterlimit="10"/>
<path d="M350 119L474 119V54L350 54V119Z" stroke="#808080" stroke-miterlimit="10"/>
<path d="M467.61 54.57L473.31 65.97H354.23L350 54" stroke="#808080" stroke-miterlimit="10"/>
<path d="M467.61 66.2807L473.31 77.6907H354.23L350 65.7207" stroke="#808080" stroke-miterlimit="10"/>
<path d="M467.61 77.9995L473.31 89.3995H354.23L350 77.4395" stroke="#808080" stroke-miterlimit="10"/>
<path d="M467.61 89.7204L473.31 101.12H354.23L350 89.1504" stroke="#808080" stroke-miterlimit="10"/>
<path d="M467.61 101.439L473.31 112.839H354.23L350 100.869" stroke="#808080" stroke-miterlimit="10"/>
<path d="M154.5 434.922C193.01 434.922 225.77 440.732 237.95 448.842L270.52 461.762L187.83 482.262L168.13 476.502C163.69 476.662 159.147 476.745 154.5 476.752C105.6 476.752 65.97 467.382 65.97 455.832C65.97 444.282 105.6 434.922 154.5 434.922Z" fill="#263238"/>
<path d="M73.49 296.381C73.49 296.381 70.49 303.491 68.07 310.601C65.65 317.711 64.84 323.061 65.85 328.471C66.86 333.881 71.85 339.701 76.85 340.721C81.85 341.741 110.7 332.261 118.14 326.501C125.58 320.741 120.51 305.861 114.42 302.501C108.33 299.141 73.49 296.381 73.49 296.381Z" fill="white" stroke="#263238" stroke-linecap="round" stroke-linejoin="round"/>
<path d="M80.42 302.58C80.42 302.58 88 307.39 92.07 308.68C96.14 309.97 103.53 311.46 103.53 311.46C103.53 311.46 90.77 310.53 88.18 311.64C85.59 312.75 83.37 313.86 83.37 313.86C83.37 313.86 101.87 313.31 105.94 316.08C110.01 318.85 115 323.08 115 323.08L109.27 308.28L110.19 306.62C110.19 306.62 92.44 306.83 80.42 302.58Z" fill="#263238" stroke="#263238" stroke-linecap="round" stroke-linejoin="round"/>
<path d="M162.69 235.361C162.69 235.361 176.86 243.141 178.81 251.191C179.849 255.759 181.532 260.156 183.81 264.251L115.45 306.491C115.45 306.491 100.73 309.821 89.33 306.211C77.93 302.601 72.11 300.931 72.33 296.211C72.55 291.491 77.06 288.151 78.45 285.651C79.84 283.151 91.51 255.921 98.18 245.361C104.85 234.801 106.79 226.191 120.41 220.631C128.319 217.317 136.837 215.705 145.41 215.901L162.69 235.361Z" fill="#407BFF" stroke="#263238" stroke-linecap="round" stroke-linejoin="round"/>
<path d="M85.23 297.841C83.57 297.841 81.91 297.841 80.23 297.691" stroke="#263238" stroke-linecap="round" stroke-linejoin="round"/>
<path d="M107.07 296C100.578 297.036 94.0228 297.634 87.45 297.79" stroke="#263238" stroke-linecap="round" stroke-linejoin="round"/>
<path d="M112.11 295.15C112.11 295.15 111.26 295.33 109.76 295.59" stroke="#263238" stroke-linecap="round" stroke-linejoin="round"/>
<path d="M106.35 285.461C100.13 288.591 89.48 293.281 78.65 294.921" stroke="#263238" stroke-linecap="round" stroke-linejoin="round"/>
<path d="M111.88 282.461C111.88 282.461 110.88 283.061 109.14 284.001" stroke="#263238" stroke-linecap="round" stroke-linejoin="round"/>
<path d="M75.42 292.841C78.1874 291.533 81.0569 290.453 84 289.611" stroke="#263238" stroke-linecap="round" stroke-linejoin="round"/>
<path d="M159.63 244.531L152.13 265.921L148.8 266.481L152.69 255.921" stroke="#263238" stroke-linecap="round" stroke-linejoin="round"/>
<path d="M169.35 244.16L166.14 253.34L164.01 243.73L169.35 244.16Z" fill="#407BFF" stroke="#263238" stroke-linecap="round" stroke-linejoin="round"/>
<path d="M163.7 231.471L169.35 244.161L158.03 245.871L163.7 231.471Z" fill="#407BFF" stroke="#263238" stroke-linecap="round" stroke-linejoin="round"/>
<path d="M200.54 203.78C200.54 203.78 196.91 209.12 196.48 210.83C196.05 212.54 193.06 218.52 190.71 221.94C188.36 225.36 179.82 234.94 174.71 235.83C169.6 236.72 165.1 233.05 165.1 233.05L158 245.87L149.88 214.87L155.22 211.02C153.858 209.079 153.112 206.772 153.08 204.4C153.08 200.56 155.43 195.86 155.43 195.86C155.43 195.86 158.43 190.51 163.34 187.95C168.25 185.39 187.05 189.02 193.46 191.16C199.87 193.3 201.39 199.08 200.54 203.78Z" fill="white" stroke="#263238" stroke-linecap="round" stroke-linejoin="round"/>
<path d="M165.08 233.05L159.66 228.15L162.08 236.94L165.08 233.05Z" fill="#263238" stroke="#263238" stroke-linecap="round" stroke-linejoin="round"/>
<path d="M187.72 205.281L185.37 208.481C185.37 208.481 186.01 218.091 184.09 218.951C182.17 219.811 178.09 218.741 177.04 217.031" stroke="#263238" stroke-linecap="round" stroke-linejoin="round"/>
<path d="M176.4 220.232C174.761 218.199 173.26 216.057 171.91 213.822C170.2 210.822 167.64 211.902 166.14 213.822C164.64 215.742 165.93 218.522 168.07 219.822C170.21 221.122 175.33 222.792 176.4 220.232Z" stroke="#263238" stroke-linecap="round" stroke-linejoin="round"/>
<path d="M167 213C167 213 170 219.19 175.12 220.9" stroke="#263238" stroke-linecap="round" stroke-linejoin="round"/>
<path d="M178.87 205.391C178.263 204.389 177.413 203.555 176.4 202.966C175.387 202.378 174.242 202.053 173.07 202.021" stroke="#263238" stroke-width="2" stroke-linecap="round" stroke-linejoin="round"/>
<path d="M188.45 209.49C188.45 209.49 192.16 209.13 193.09 211.84" stroke="#263238" stroke-width="2" stroke-linecap="round" stroke-linejoin="round"/>
<path d="M195.6 209.17C195.6 209.17 195.79 206.17 189.6 205.98" stroke="#263238" stroke-linecap="round" stroke-linejoin="round"/>
<path d="M181.09 203.321C181.09 203.321 180.6 198.941 174.04 198.051" stroke="#263238" stroke-linecap="round" stroke-linejoin="round"/>
<path d="M155.57 195.691C156.893 193.53 158.546 191.59 160.47 189.941C163.883 190.222 167.275 190.706 170.63 191.391L171.7 193.101C171.7 193.101 165.29 201.861 162.94 201.861C160.59 201.861 161.23 196.941 159.09 195.661C158.546 195.378 157.94 195.232 157.326 195.238C156.713 195.243 156.109 195.399 155.57 195.691Z" fill="#263238" stroke="#263238" stroke-linecap="round" stroke-linejoin="round"/>
<path d="M153.11 204.42C153.131 203.379 153.265 202.342 153.51 201.33C153.12 205.16 155 208.14 155.68 208.48C156.332 208.878 156.91 209.386 157.39 209.98L155.19 210.98C153.864 209.047 153.14 206.764 153.11 204.42Z" fill="#263238" stroke="#263238" stroke-linecap="round" stroke-linejoin="round"/>
<path d="M155.33 194.831C155.33 194.831 165.8 192.481 181.56 196.581C197.32 200.681 200.72 204.751 200.72 204.751C200.72 204.751 202.92 196.031 203.89 190.561C204.86 185.091 194.66 176.561 188.78 174.211C182.9 171.861 170.63 173.811 166.51 175.031C162.39 176.251 159.23 181.771 158.51 183.381C157.79 184.991 155.33 194.831 155.33 194.831Z" fill="#407BFF" stroke="#263238" stroke-linecap="round" stroke-linejoin="round"/>
<path d="M200.72 204.751C200.72 204.751 209.63 215.661 207.55 216.381C205.47 217.101 197.45 208.511 188.65 206.731C179.85 204.951 171.6 201.321 168.65 198.411C167.142 197.036 165.799 195.489 164.65 193.801C164.65 193.801 185.46 192.931 200.72 204.751Z" fill="white" stroke="#263238" stroke-linecap="round" stroke-linejoin="round"/>
<path d="M152.47 211.262L160.16 245.442L150.34 249.292L144.14 214.462L152.47 211.262Z" fill="#407BFF" stroke="#263238" stroke-linecap="round" stroke-linejoin="round"/>
<path d="M182.47 396.901L171.64 415.171C171.64 415.171 174.01 417.171 174.01 418.221V421.601C174.01 421.601 187.54 426.341 190.59 427.701C193.64 429.061 194.31 433.111 193.97 434.131C193.63 435.151 186.87 436.501 180.44 436.501C174.01 436.501 161.82 433.451 161.82 433.451C161.82 433.451 153.7 433.451 150.99 431.761C148.28 430.071 149.3 426.001 149.99 422.961C150.68 419.921 151.68 416.871 151.68 416.871C151.68 416.871 151.34 411.791 152.02 410.441C152.7 409.091 153.71 407.731 153.71 406.371C153.71 405.011 158.45 385.371 158.45 385.371L182.47 396.901Z" fill="#263238" stroke="#263238" stroke-linecap="round" stroke-linejoin="round"/>
<path d="M172.31 337.001L200.06 412.811L138.79 377.621L110.51 308.441L172.31 337.001Z" fill="#263238" stroke="#263238" stroke-linecap="round" stroke-linejoin="round"/>
<path d="M261.32 272.351L172.31 337.001L110.51 308.441L187.54 252.391L261.32 272.351Z" fill="#DEDEDE" stroke="#263238" stroke-linecap="round" stroke-linejoin="round"/>
<path d="M261.32 272.352L287.04 348.162L200.06 412.812L172.31 337.002L261.32 272.352Z" fill="#D1D1D1" stroke="#263238" stroke-linecap="round" stroke-linejoin="round"/>
<path d="M226.42 263.221L143.1 323.401L149.34 343.541L138.01 336.741L130.76 317.821L211.42 258.811L226.42 263.221Z" fill="#F5F5F5" stroke="#263238" stroke-linecap="round" stroke-linejoin="round"/>
<path d="M134.39 319.33L132.62 318.5" stroke="#263238" stroke-linecap="round" stroke-linejoin="round"/>
<path d="M141.58 322.731L135.69 319.951" stroke="#263238" stroke-linecap="round" stroke-linejoin="round"/>
<path d="M201.48 340.32L191.44 333.23L189.43 347.5L192.56 345.63L196.67 356.56L202.48 353.11L198.36 342.18L201.48 340.32Z" fill="#263238"/>
<path d="M198 358.511L200.05 363.971C200.24 364.471 200.5 364.541 200.81 364.351C201.12 364.161 201.25 363.871 201.06 363.351L199 357.911L199.92 357.361L201.92 362.741C202.155 363.2 202.204 363.731 202.057 364.225C201.91 364.719 201.578 365.136 201.13 365.391C200.13 365.961 199.43 365.611 199.01 364.481L197.01 359.091L198 358.511Z" fill="#263238"/>
<path d="M204.17 357L204.52 357.92C204.639 358.144 204.712 358.389 204.737 358.642C204.761 358.894 204.735 359.149 204.661 359.391C204.586 359.633 204.465 359.859 204.304 360.054C204.142 360.25 203.944 360.412 203.72 360.53L203.26 360.81L204.26 363.46L203.26 364.04L200.62 357L202.06 356.15C203 355.53 203.75 355.86 204.17 357ZM201.98 357.4L202.88 359.8L203.34 359.52C203.65 359.34 203.76 359.07 203.57 358.57L203.17 357.51C202.98 357 202.75 356.94 202.44 357.13L201.98 357.4Z" fill="#263238"/>
<path d="M260.54 293.371L250.49 286.281L248.49 300.551L251.61 298.691L255.73 309.621L261.53 306.161L257.42 295.231L260.54 293.371Z" fill="#263238"/>
<path d="M257.08 311.571L259.14 317.021C259.33 317.531 259.59 317.591 259.9 317.411C260.21 317.231 260.34 316.921 260.15 316.411L258.09 311.001L259.01 310.451L261.01 315.831C261.243 316.287 261.292 316.816 261.146 317.307C261.001 317.798 260.673 318.215 260.23 318.471C259.23 319.041 258.53 318.691 258.1 317.561L256.1 312.181L257.08 311.571Z" fill="#263238"/>
<path d="M263.23 310.001L263.58 310.922C263.805 311.378 263.848 311.903 263.699 312.39C263.55 312.877 263.222 313.289 262.78 313.542L262.32 313.811L263.32 316.472L262.32 317.051L259.68 310.001L261.12 309.142C262.09 308.582 262.8 308.911 263.23 310.001ZM261.04 310.412L261.94 312.801L262.4 312.531C262.71 312.341 262.82 312.081 262.63 311.531L262.23 310.472C262.04 309.972 261.81 309.911 261.5 310.091L261.04 310.412Z" fill="#263238"/>
<path d="M286.09 313.102L287.27 316.492" stroke="#263238" stroke-linecap="round" stroke-linejoin="round"/>
<path d="M272.87 275.16L285.16 310.46" stroke="#263238" stroke-linecap="round" stroke-linejoin="round"/>
<path d="M289.76 309.16L293.77 320.67" stroke="#263238" stroke-linecap="round" stroke-linejoin="round"/>
<path d="M279.37 279.342L288.76 306.312" stroke="#263238" stroke-linecap="round" stroke-linejoin="round"/>
<path d="M226.27 255.201L197.17 247.301" stroke="#263238" stroke-linecap="round" stroke-linejoin="round"/>
<path d="M234.79 257.511L229.33 256.031" stroke="#263238" stroke-linecap="round" stroke-linejoin="round"/>
<path d="M216.21 249.621L194.85 244.051" stroke="#263238" stroke-linecap="round" stroke-linejoin="round"/>
<path d="M207.6 413.881L204.14 416.341" stroke="#263238" stroke-linecap="round" stroke-linejoin="round"/>
<path d="M221.79 403.801L209.6 412.461" stroke="#263238" stroke-linecap="round" stroke-linejoin="round"/>
<path d="M225.96 406.592L217.61 412.622" stroke="#263238" stroke-linecap="round" stroke-linejoin="round"/>
<path d="M206.57 304.521C207.664 304.292 208.769 304.118 209.88 304.001C211.595 304.279 213.347 304.245 215.05 303.901C217.32 303.281 218.36 303.901 217.73 305.351C217.333 306.105 216.776 306.764 216.099 307.282C215.423 307.8 214.642 308.165 213.81 308.351C212.57 308.451 209.81 308.451 209.81 308.451L206.09 305.141L206.57 304.521Z" fill="white" stroke="#263238" stroke-linecap="round" stroke-linejoin="round"/>
<path d="M137.68 230.08C137.68 230.08 143.8 235.91 144.35 242.02C144.9 248.13 141 283.15 141 283.15C141 283.15 153.5 289.26 162.95 294.82C172.4 300.38 188.24 307.05 188.24 307.05C188.24 307.05 206.57 303.71 207.96 304.27C209.35 304.83 216.86 312.88 217.13 313.99C217.4 315.1 215.74 321.49 215.74 322.61C215.74 323.73 214.3 323.75 214.3 323.75H213.24L212.48 325.27C212.289 325.652 212.006 325.98 211.657 326.226C211.308 326.472 210.904 326.628 210.48 326.68L209.37 326.8C209.37 326.8 207.43 329.03 205.76 327.64C204.09 326.25 200.48 320.13 200.48 320.13C200.48 320.13 191.87 319.3 189.64 318.47C187.809 317.686 186.043 316.756 184.36 315.69C184.36 315.69 133 302.6 128 301.21C123 299.82 121.05 298.43 119.11 294.54C117.17 290.65 112.75 252.04 112.75 248.71" fill="white"/>
<path d="M137.68 230.08C137.68 230.08 143.8 235.91 144.35 242.02C144.9 248.13 141 283.15 141 283.15C141 283.15 153.5 289.26 162.95 294.82C172.4 300.38 188.24 307.05 188.24 307.05C188.24 307.05 206.57 303.71 207.96 304.27C209.35 304.83 216.86 312.88 217.13 313.99C217.4 315.1 215.74 321.49 215.74 322.61C215.74 323.73 214.3 323.75 214.3 323.75H213.24L212.48 325.27C212.289 325.652 212.006 325.98 211.657 326.226C211.308 326.472 210.904 326.628 210.48 326.68L209.37 326.8C209.37 326.8 207.43 329.03 205.76 327.64C204.09 326.25 200.48 320.13 200.48 320.13C200.48 320.13 191.87 319.3 189.64 318.47C187.809 317.686 186.043 316.756 184.36 315.69C184.36 315.69 133 302.6 128 301.21C123 299.82 121.05 298.43 119.11 294.54C117.17 290.65 112.75 252.04 112.75 248.71" stroke="#263238" stroke-linecap="round" stroke-linejoin="round"/>
<path d="M200.2 314C200.2 314 206.04 319 206.04 320.95C206.04 322.9 208.74 327.17 208.74 327.17" stroke="#263238" stroke-linecap="round" stroke-linejoin="round"/>
<path d="M203.68 310.41C203.68 310.41 207.61 314.75 208.43 316.1C209.25 317.45 210.43 326.65 210.43 326.65" stroke="#263238" stroke-linecap="round" stroke-linejoin="round"/>
<path d="M206.88 307.83C206.88 307.83 211.88 312.48 211.95 314.24C212.02 316 213.26 323.72 213.26 323.72" stroke="#263238" stroke-linecap="round" stroke-linejoin="round"/>
<path d="M137.39 229.602C137.39 229.602 143.8 235.912 144.39 242.022C144.78 246.322 142.98 264.882 141.87 275.542C136.3 273.492 125.72 271.292 116.24 278.992C114.61 267.292 113.02 252.732 112.75 248.712" fill="#407BFF"/>
<path d="M137.39 229.602C137.39 229.602 143.8 235.912 144.39 242.022C144.78 246.322 142.98 264.882 141.87 275.542C136.3 273.492 125.72 271.292 116.24 278.992C114.61 267.292 113.02 252.732 112.75 248.712" stroke="#263238" stroke-linecap="round" stroke-linejoin="round"/>
<path d="M141 283.151C141 283.151 134.61 281.201 132.11 281.761" stroke="#263238" stroke-linecap="round" stroke-linejoin="round"/>
<path d="M121.91 459.43C121.91 459.43 129.7 468.23 135.45 472.97C141.2 477.71 138.83 482.11 134.77 483.12C130.71 484.13 122.59 482.45 115.14 480.12C107.69 477.79 101.61 469.97 101.61 469.97C101.61 469.97 93.14 464.55 92.47 462.52C91.8 460.49 99.57 451 99.57 451C99.57 451 119.88 459.43 121.91 459.43Z" fill="#407BFF" stroke="#263238" stroke-linecap="round" stroke-linejoin="round"/>
<path d="M92.47 462.481C92.23 461.781 93.01 460.181 94.14 458.391C98.63 462.261 106.67 473.301 112.77 476.391C117.94 478.971 129.4 481.761 137.45 481.761C136.685 482.438 135.764 482.916 134.77 483.151C130.71 484.151 122.59 482.481 115.14 480.151C107.69 477.821 101.61 470.001 101.61 470.001C101.61 470.001 93.14 464.511 92.47 462.481Z" fill="white" stroke="#263238" stroke-linecap="round" stroke-linejoin="round"/>
<path d="M79.92 315.34C79.92 315.34 92.78 309.92 102.26 313.64C111.74 317.36 128.66 332.64 135.76 343.43C142.86 354.22 149 359 148.62 369.15C148.24 379.3 132.38 424.65 131.7 428.71C131.02 432.77 126.7 449.62 126.7 449.62C126.936 451.757 126.936 453.913 126.7 456.05C126.39 458.63 125.56 463.05 125.56 463.05C125.56 463.05 114.18 462.45 107.75 459.4C104.222 457.812 100.921 455.764 97.93 453.31C98.3684 450.774 99.0379 448.284 99.93 445.87C101.29 442.48 105.66 436.47 106.34 434.43C107.02 432.39 108.71 411.76 108.71 403.3C108.71 394.84 112.43 373.85 112.43 372.5C112.725 370.55 113.176 368.627 113.78 366.75C113.78 366.75 85.02 352.53 77.23 345.75C69.44 338.97 66.13 332.63 65.36 326.57C64.81 322.18 66.63 315.9 66.63 315.9" fill="white"/>
<path d="M79.92 315.34C79.92 315.34 92.78 309.92 102.26 313.64C111.74 317.36 128.66 332.64 135.76 343.43C142.86 354.22 149 359 148.62 369.15C148.24 379.3 132.38 424.65 131.7 428.71C131.02 432.77 126.7 449.62 126.7 449.62C126.936 451.757 126.936 453.913 126.7 456.05C126.39 458.63 125.56 463.05 125.56 463.05C125.56 463.05 114.18 462.45 107.75 459.4C104.222 457.812 100.921 455.764 97.93 453.31C98.3684 450.774 99.0379 448.284 99.93 445.87C101.29 442.48 105.66 436.47 106.34 434.43C107.02 432.39 108.71 411.76 108.71 403.3C108.71 394.84 112.43 373.85 112.43 372.5C112.725 370.55 113.176 368.627 113.78 366.75C113.78 366.75 85.02 352.53 77.23 345.75C69.44 338.97 66.13 332.63 65.36 326.57C64.81 322.18 66.63 315.9 66.63 315.9" stroke="#263238" stroke-linecap="round" stroke-linejoin="round"/>
<path d="M76.87 303.49C76.87 303.49 72.47 308.23 73.15 310.26C73.83 312.29 76.87 316 75.52 316C74.17 316 72.14 319.05 72.14 319.05L75.14 319.72L73.79 327.51L114.44 360C116.336 361.544 118.375 362.904 120.53 364.06L118.16 368.12L122.56 368.8C122.56 368.8 116.13 375.23 115.46 380.64C114.79 386.05 109.05 442.84 108.37 444.53C107.69 446.22 106.68 447.24 106.37 448.93C106.199 450.733 106.199 452.548 106.37 454.35C106.37 455.35 106.03 457.73 106.03 457.73" stroke="#263238" stroke-linecap="round" stroke-linejoin="round"/>
</svg>
